<svg xmlns="http://www.w3.org/2000/svg" xmlns:xlink="http://www.w3.org/1999/xlink" viewBox="0 0 292.2 278.59"><defs><style>.cls-1{isolation:isolate;}.cls-2{fill:#e1edf9;}.cls-3{fill:#784b86;}.cls-4{fill:#421d46;}.cls-5{fill:#673a71;}.cls-6{fill:#fffeff;}.cls-7{fill:#4cc1ec;}.cls-8{opacity:0.1;}.cls-11,.cls-12,.cls-16,.cls-22,.cls-24,.cls-25,.cls-8{mix-blend-mode:multiply;}.cls-9{fill:#607080;}.cls-10{fill:#110812;}.cls-11{fill:url(#linear-gradient);}.cls-12{fill:url(#linear-gradient-2);}.cls-13{fill:#0098ca;}.cls-14{fill:#26addb;}.cls-15{fill:#fa4f47;}.cls-16,.cls-17{fill:#bd221e;}.cls-16,.cls-24{opacity:0.25;}.cls-18{fill:#df3128;}.cls-19{opacity:0.5;fill:url(#linear-gradient-3);}.cls-19,.cls-21{mix-blend-mode:color-burn;}.cls-20{fill:#fec9c9;}.cls-21,.cls-23,.cls-25{fill:#cf3838;}.cls-21,.cls-22,.cls-25{opacity:0.15;}</style><linearGradient id="linear-gradient" x1="-3589.36" y1="107.57" x2="-3578.14" y2="107.57" gradientTransform="translate(3747)" gradientUnits="userSpaceOnUse"><stop offset="0.01" stop-color="#ebeaf0"/><stop offset="0.99" stop-color="#e5e4ec"/></linearGradient><linearGradient id="linear-gradient-2" x1="-3575.94" y1="97.88" x2="-3563.8" y2="97.88" xlink:href="#linear-gradient"/><linearGradient id="linear-gradient-3" x1="158.52" y1="48.66" x2="138.65" y2="47.02" gradientTransform="matrix(1, 0, 0, 1, 0, 0)" xlink:href="#linear-gradient"/></defs><title>svg-1</title><g class="cls-1"><g id="Capa_2" data-name="Capa 2"><g id="Layer_1" data-name="Layer 1"><polygon class="cls-2" points="241.42 84.66 146.2 139.27 0 54.61 95.22 0 241.42 84.66"/><polygon class="cls-2" points="292.2 242.22 229.21 278.58 166.21 242.22 229.21 205.85 292.2 242.22"/><path class="cls-3" d="M194.34,60v8.1c0,1.65-1.08,3.29-3.25,4.54l-54.63,31.53a17.41,17.41,0,0,1-15.69,0L38,56.36c-2.17-1.26-3.25-2.89-3.25-4.53V43.57l8.23.85L92.58,15.78a17.27,17.27,0,0,1,15.68,0l74.57,43Z"/><path class="cls-4" d="M120.77,85.48v18.69L38,56.36c-2.17-1.26-3.25-2.89-3.25-4.53V43.57l8.23.85Z"/><path class="cls-5" d="M191.07,64.52,136.43,96.05a17.33,17.33,0,0,1-15.68,0L37.91,48.25c-4.33-2.5-4.33-6.56,0-9.06L92.55,7.66a17.33,17.33,0,0,1,15.68,0l82.84,47.81C195.4,58,195.4,62,191.07,64.52Z"/><path class="cls-6" d="M192.1,59.77c0,.75-.75,1.63-2,2.35L160.82,79l-.46.26L135.47,93.65a14.87,14.87,0,0,1-13.18,0L95.47,78.17,86.68,73.1l-6.89-4L70.85,64,39.46,45.84c-1.25-.72-2-1.6-2-2.35s.75-1.63,2-2.35L94.1,9.61a10,10,0,0,1,2.53-1,16.1,16.1,0,0,1,7.92-.05,10.79,10.79,0,0,1,2.72,1.07l82.83,47.8C191.35,58.14,192.1,59,192.1,59.77Z"/><path class="cls-7" d="M129.31,94.26a12.67,12.67,0,0,1-6.12-1.41L96.37,77.36l-8.79-5.07L40.36,45c-1.13-.65-1.53-1.28-1.53-1.55s.4-.9,1.53-1.55L95,10.41a9.52,9.52,0,0,1,2.31-.92,14.31,14.31,0,0,1,3.81-.5,14.87,14.87,0,0,1,3.64.45,9.58,9.58,0,0,1,2.49,1l82.83,47.81c1.12.64,1.54,1.29,1.54,1.55s-.41.9-1.54,1.55L160.79,78.21l-.46.27L135.44,92.85A12.68,12.68,0,0,1,129.31,94.26Z"/><g class="cls-8"><ellipse class="cls-9" cx="172.56" cy="103.42" rx="18.41" ry="10.63"/></g><path class="cls-10" d="M172.53,111.94c-.2.48-1.92.55-3.67.46a22.83,22.83,0,0,1-3.74-.46c-1-.31-7.18-6-7.43-6.48s.48-2.39.48-2.39l3.26-.33,2.9-.29s3.19,3.79,4,4.48S172.92,111,172.53,111.94Z"/><path class="cls-10" d="M183.2,102.18c-.19.55-.43.95-.64,1-.61.21-6.68-4.72-7.28-5.6s-4-1.28-4.19-1.82a5.57,5.57,0,0,1,.47-2.21,18.61,18.61,0,0,1,2.69-1c1.47-.43,3-.61,3.38.39.68,2,5,5.12,5.67,6.14C183.74,99.74,183.55,101.19,183.2,102.18Z"/><path class="cls-11" d="M168.86,112.4a22.83,22.83,0,0,1-3.74-.46c-1-.31-7.18-6-7.43-6.48s.48-2.39.48-2.39l3.26-.33c.75,1.8,2.49,5.66,4.15,7.14A33.24,33.24,0,0,0,168.86,112.4Z"/><path class="cls-12" d="M183.2,102.18c-.19.55-.43.95-.64,1-.61.21-6.68-4.72-7.28-5.6s-4-1.28-4.19-1.82a5.57,5.57,0,0,1,.47-2.21,18.61,18.61,0,0,1,2.69-1,10.54,10.54,0,0,0,2.47,4.16A80.8,80.8,0,0,0,183.2,102.18Z"/><path class="cls-5" d="M178.82,91.39c0,1.36,0,2.18,0,2.18a2,2,0,0,1-1.2,1.66,5.56,5.56,0,0,1-2,.63,8,8,0,0,1-1.2,0,7.87,7.87,0,0,1-1-.13,5.67,5.67,0,0,1-1.53-.55,2,2,0,0,1-1.18-1.66s-.13-18-.88-19.17a6.74,6.74,0,0,0-2.18-1.35c-3-1.39-7.85-3.12-8.22-3.26.26.37,4.62,6.24,5.17,8.08s.85,24.91.85,24.91a2,2,0,0,1-1.2,1.67,6.12,6.12,0,0,1-2.59.67H161a6,6,0,0,1-2.52-.68,2,2,0,0,1-1.18-1.72c.05-1.06-.51-19.52-1-19.9s-12.9-9.46-15-12.77c-.95-1.49-.64-3.49,0-5.25a16.48,16.48,0,0,1,1.12-2.44,17.28,17.28,0,0,1,.95-1.57l1.1.31,2.09.61.21.07.23-.06,11.41-2.85s17.94,8.66,19.31,11.76C178.7,73.11,178.82,86.17,178.82,91.39Z"/><path class="cls-4" d="M161.63,105.12H161a6,6,0,0,1-2.52-.68,2,2,0,0,1-1.18-1.72c.05-1.06-.51-19.52-1-19.9s-12.9-9.46-15-12.77c-.95-1.49-.64-3.49,0-5.25a16.48,16.48,0,0,1,1.12-2.44,17.28,17.28,0,0,1,.95-1.57l1.1.31,2.09.61a51,51,0,0,0,.17,7.28c.38,1.76,9,8.43,12.38,11a3.72,3.72,0,0,1,1.47,2.79Z"/><path class="cls-4" d="M174.38,95.91a7.87,7.87,0,0,1-1-.13,5.67,5.67,0,0,1-1.53-.55,2,2,0,0,1-1.18-1.66s-.13-18-.88-19.17a6.74,6.74,0,0,0-2.18-1.35c-3-1.39-7.85-3.12-8.22-3.26,0,0,11,.59,13.16,3.72C174.23,76,174.39,89.89,174.38,95.91Z"/><polygon class="cls-7" points="164.33 84.31 164.33 83.34 148.75 74.34 148.75 75.31 164.33 84.31"/><polygon class="cls-13" points="185.55 71.09 185.55 72.06 164.33 84.31 164.33 83.34 185.55 71.09"/><polygon class="cls-14" points="164.33 83.34 174.94 77.22 185.55 71.09 169.97 62.09 148.75 74.34 164.33 83.34"/><path class="cls-15" d="M170.68,61l-1.85,2-1.48,1.56-.08.08-1.57,1.66s-7.37-11.45-8-12.09-.44-4.26,0-13.33c.24-5.11.67-7.3,1-8.25A2,2,0,0,1,159,32c.11-.11.16-.12.16-.12,1.82.1,3.28,2,4.13,5s.07,13.33.07,13.33Z"/><path class="cls-16" d="M167.27,64.63l-1.57,1.66s-7.37-11.45-8-12.09-.44-4.26,0-13.33c.24-5.11.67-7.3,1-8.25A2,2,0,0,1,159,32c.1,3.84.39,17.72.75,20.54Z"/><path class="cls-17" d="M171.09,62.17a5.79,5.79,0,0,1-2.79,4.4c-1.54.89-2.79.37-2.79-1.18A5.79,5.79,0,0,1,168.3,61C169.84,60.1,171.09,60.63,171.09,62.17Z"/><path class="cls-18" d="M161.41,45.35s-2.46,4.26-2.67,6-.42,7.57-.42,7.57a8.79,8.79,0,0,1-2.82,3.21,13,13,0,0,1-7.19,2.33,22.44,22.44,0,0,1-5.56-.43,24.06,24.06,0,0,1-4.18-11.83,25.55,25.55,0,0,1-.08-2.93c0-.29,0-.58,0-.88a26.3,26.3,0,0,1,1.47-7c.07-.18.12-.34.19-.51,0,0,.75-.6,2-1.49,3-2.06,8.71-5.64,14.71-7a18.77,18.77,0,0,1,2.19-.42,3.24,3.24,0,0,1,.72.7C160.92,34,162.72,37.52,161.41,45.35Z"/><path class="cls-19" d="M146.09,49.11c.24-4.45-1.3-7.54-3-9.07,3.71-2.19,12.09-6.87,16.72-7.42a3.58,3.58,0,0,0-.72-.7c-9.37,1.28-18.94,8.95-18.94,8.95l-.18.51a26.3,26.3,0,0,0-1.47,7c0,.3,0,.59,0,.88a25.55,25.55,0,0,0,.08,2.93A24.06,24.06,0,0,0,142.75,64a22.35,22.35,0,0,0,5.54.43C147.2,60.13,145.59,58.22,146.09,49.11Z"/><path class="cls-15" d="M159.37,65.5l-.45.68-2.44,3.71-1,1.5-.17.26s-17-5-17.6-5.63S136,60.27,136.47,51.2c.43-8.77,3.53-10.24,3.72-10.32a2.38,2.38,0,0,1,1.07.29c1.26.66,2.2,2.34,2.88,4.71.86,3-.86,14.92-.86,14.92Z"/><path class="cls-20" d="M175.22,69.06l-.75.52s-.09.06-.09.08l-.75.52s-2.59-4.56-3.77-4.46c-.6,0-.49.93-.24,1.78a14.56,14.56,0,0,0,.56,1.51,3.78,3.78,0,0,1-1.92-.73,5.84,5.84,0,0,1-.93-1.32,5.13,5.13,0,0,1-.49-2.15,2.45,2.45,0,0,0-.63-1.66,7,7,0,0,1,.49-.72l.18-.23,0,0A5.35,5.35,0,0,1,168.29,61a6.55,6.55,0,0,0,2.43,2A2.5,2.5,0,0,1,171,63a26.34,26.34,0,0,1,2.49,1,1.56,1.56,0,0,1,.89,1.13Z"/><path class="cls-21" d="M170.19,69s-1.48-.19-1.93-.74a5.84,5.84,0,0,1-.93-1.32,5.13,5.13,0,0,1-.49-2.15,2.45,2.45,0,0,0-.63-1.66,7,7,0,0,1,.49-.72l.18-.23,0,0A10.31,10.31,0,0,0,170.18,69Z"/><polygon class="cls-13" points="167.9 68.83 164.33 83.34 185.55 71.09 189.12 56.58 167.9 68.83"/><polygon class="cls-14" points="167.32 68.49 167.9 68.83 189.12 56.58 188.54 56.24 167.32 68.49"/><polygon class="cls-7" points="164.33 83.34 163.75 83.01 167.32 68.49 167.9 68.83 164.33 83.34"/><path class="cls-20" d="M153.79,42.12a7.24,7.24,0,0,1-2.69-1.84,16.78,16.78,0,0,1-1.32-1.51c-.5-.63-.91-1.25-1.24-1.74-.42-.67-.66-1.12-.66-1.12l.41-2,1.18-1a13.42,13.42,0,0,1,1.33.31l.06,0c.27.07.55.17.86.27,1.52.55,3.33,1.53,3.63,3.11C155.86,39.49,153.79,42.12,153.79,42.12Z"/><g class="cls-22"><path class="cls-23" d="M151.1,40.28a16.78,16.78,0,0,1-1.32-1.51c-.5-.63-.91-1.25-1.24-1.74-.42-.67-.66-1.12-.66-1.12l.41-2,1.18-1a13.42,13.42,0,0,1,1.33.31l.06,0c.27.07.55.17.86.27a2.92,2.92,0,0,1,.81,1.46A7.68,7.68,0,0,1,151.1,40.28Z"/></g><path class="cls-20" d="M155.39,38.85h-.26C152.66,39,149,36,149,36l-.27-1.94s-.25.19-1.31-1.06c-.33-1.74-.85-4.92-1.69-7.87a5,5,0,0,1,1.9-2.39,8.46,8.46,0,0,1,6.75-.69,4.81,4.81,0,0,1,2.07,1.14c1.51,1.42,1.8,3.58,2,4.89C158.61,29.86,157.29,38.56,155.39,38.85Z"/><g class="cls-24"><path class="cls-17" d="M155.51,71.39a.41.41,0,0,1-.17.26s-17-5-17.6-5.63S136,60.27,136.47,51.2c.43-8.77,3.53-10.24,3.72-10.32-2.46,6.41-1.29,22.66-1.29,22.66L155.42,69C155.07,69,155.69,70.7,155.51,71.39Z"/></g><path class="cls-17" d="M160.24,67a5.79,5.79,0,0,1-2.79,4.41c-1.54.89-2.79.36-2.79-1.18a5.81,5.81,0,0,1,2.79-4.41C159,64.92,160.24,65.45,160.24,67Z"/><path class="cls-20" d="M154.71,69.62c.79.52,1.9,1.28,2.7,1.8a6.69,6.69,0,0,0,1,.59c.38,0,1.69.11,2.67.18a3.16,3.16,0,0,1,2,1,1.16,1.16,0,0,0,.62.34,1.42,1.42,0,0,0,.46,0,1.36,1.36,0,0,0,.62-.25,1.45,1.45,0,0,0,.49-.6l.27-.68a1.87,1.87,0,0,0-.39-2l-2.7-2.78a1,1,0,0,0-.88-.27l-1.28.31h-.06c-1.3.28-2.41-.3-3.63-.78a6.11,6.11,0,0,0-1.37,1.75l-.1.21A5.8,5.8,0,0,0,154.71,69.62Z"/><path class="cls-21" d="M164.17,73.49a1.07,1.07,0,0,1-.47,0,1.11,1.11,0,0,1-.62-.35,3.2,3.2,0,0,0-2-1c-1-.07-2.29-.18-2.67-.18a6.69,6.69,0,0,1-1-.59c-.8-.52-1.91-1.27-2.7-1.79a5.19,5.19,0,0,1,.42-1.22c1.11.77,2.76,1.83,3.27,1.77a7.83,7.83,0,0,1,3.78.92C162.51,71.42,163.49,72.64,164.17,73.49Z"/><path class="cls-25" d="M155.19,38.86h-.06C152.66,39,149,36,149,36l-.27-1.94s-.25.19-1.31-1.06c-.33-1.74-.85-4.92-1.69-7.87a5,5,0,0,1,1.9-2.39l4.3,4.47s-.44,6.13.16,8.2S155.19,38.86,155.19,38.86Z"/><path class="cls-10" d="M158.87,27.34c-.09.51-.14,1-.18,1.55s.11,1.58-.38,1.71c0-.15,0-.32,0-.47,0-.42.21-3.19-.77-2.79l-.09.06a2,2,0,0,1-.68.25,1.18,1.18,0,0,1-.34,0c-3.35.17-3.58-.47-4.58-.45a.81.81,0,0,0-.64.41,4.69,4.69,0,0,0-.71,2.57,7.22,7.22,0,0,1,0,1.92l-.06,0a.4.4,0,0,1-.52,0,.92.92,0,0,1-.17-.2c-.31-.47,0-2.8-1.15-2.47-.83.31-1.32,1.18-.52,3.5a.4.4,0,0,0,.07.13.48.48,0,0,1,.06.11,8.53,8.53,0,0,1,.23,1.5l-.57,0a6.8,6.8,0,0,0-1.5-3.16,7.81,7.81,0,0,1-1.73-3.82,5.18,5.18,0,0,1,.1-2.7A7.27,7.27,0,0,1,146.31,23a7.38,7.38,0,0,1,5.47-1.84s4.23-.17,6.08,1.69a5.24,5.24,0,0,1,1,1.37,3,3,0,0,1,.31,1A6,6,0,0,1,158.87,27.34Z"/><path class="cls-3" d="M174,145.44v93a2.26,2.26,0,0,0,1.48,2.41l5.85,3.39,3.21-7.54L228,211.59c2.41-1.39,4.35-4.46,4.35-6.86V124.54L237.29,113l-5.85-3.37c-.79-.56-2-.5-3.43.31l-49.65,28.67C176,140,174,143,174,145.44Z"/><path class="cls-5" d="M178.36,138.59l6.38,3.61,29.35-1.81,18.27-15.26v-.59L237.29,113l-5.85-3.37c-.79-.56-2-.5-3.43.31Z"/><path class="cls-4" d="M238.74,208.36v-93c0-2.4-2-3.22-4.35-1.83l-49.65,28.67c-2.4,1.38-4.35,4.45-4.35,6.85v93c0,2.4,2,3.23,4.35,1.84l49.65-28.67C236.79,213.83,238.74,210.76,238.74,208.36Z"/><path class="cls-7" d="M184.84,144.23l49.45-28.54c1.3-.76,2.36-.31,2.36,1v92.77a4.9,4.9,0,0,1-2.36,3.72l-49.45,28.55c-1.3.76-2.36.31-2.36-1V148A4.93,4.93,0,0,1,184.84,144.23Z"/><polygon class="cls-2" points="232.66 125.39 232.66 136.15 232.66 147.15 232.66 158.15 232.66 169.41 186.47 196.07 186.47 185.07 186.47 174.06 186.47 163.06 186.47 152.06 232.66 125.39"/><polygon class="cls-2" points="186.47 202.19 186.47 212.3 232.66 186.28 232.66 175.27 186.47 202.19"/><polygon class="cls-2" points="186.47 216.17 186.47 226.28 232.66 200.26 232.66 189.26 186.47 216.17"/><path class="cls-7" d="M209.57,145.52c3.73-2.15,6.76-.87,6.76,2.86v20.85a5.82,5.82,0,0,1-2.8,4.42l-7.93,4.58c-1.54.89-2.8.36-2.8-1.19V156.19c0-3.74,3-8.51,6.77-10.67Z"/><path class="cls-14" d="M216.33,150.53v2.33l-2.26,1.3c-.64.37-1.16.16-1.16-.49a2.44,2.44,0,0,1,1.16-1.84Z"/><path class="cls-14" d="M216.33,155.68V158l-2.26,1.31c-.64.37-1.16.14-1.16-.5a2.41,2.41,0,0,1,1.16-1.84Z"/><path class="cls-14" d="M216.33,160.83v2.33l-2.26,1.3c-.64.37-1.16.14-1.16-.5a2.41,2.41,0,0,1,1.16-1.83Z"/><path class="cls-14" d="M216.33,166v2.33l-2.26,1.3c-.64.38-1.16.15-1.16-.5a2.41,2.41,0,0,1,1.16-1.82Z"/><path class="cls-14" d="M206.22,157.54a2.39,2.39,0,0,1-1.16,1.82l-2.26,1.31v-2.33l2.26-1.3C205.7,156.66,206.22,156.89,206.22,157.54Z"/><path class="cls-14" d="M206.22,162.68a2.41,2.41,0,0,1-1.16,1.84l-2.26,1.3v-2.34l2.26-1.3C205.7,161.81,206.22,162,206.22,162.68Z"/><path class="cls-14" d="M206.22,167.82a2.41,2.41,0,0,1-1.16,1.84L202.8,171v-2.32l2.26-1.31C205.7,167,206.22,167.18,206.22,167.82Z"/><path class="cls-14" d="M206.22,173a2.44,2.44,0,0,1-1.16,1.84l-2.26,1.3v-2.33l2.26-1.3C205.7,172.11,206.22,172.34,206.22,173Z"/></g></g></g></svg>