<svg xmlns="http://www.w3.org/2000/svg" xmlns:xlink="http://www.w3.org/1999/xlink" viewBox="0 0 345.5 384.36"><defs><style>.cls-1,.cls-45{fill:#bbdaf9;}.cls-2{fill:#a7d0f9;}.cls-3{isolation:isolate;}.cls-4{fill:#e1edf9;}.cls-5{fill:#0098ca;}.cls-6{fill:#26addb;}.cls-7{fill:#4cc1ec;}.cls-8,.cls-9{fill:#fff;}.cls-16,.cls-8{opacity:0.1;}.cls-8{mix-blend-mode:screen;}.cls-10{fill:#ffb037;}.cls-11{fill:#fa4f47;}.cls-12{fill:#fec9c9;}.cls-13,.cls-15,.cls-18,.cls-20,.cls-21,.cls-23,.cls-24,.cls-29,.cls-30,.cls-31,.cls-33,.cls-34,.cls-35,.cls-36,.cls-37,.cls-39,.cls-40,.cls-41,.cls-42,.cls-46,.cls-47,.cls-48,.cls-49,.cls-50{mix-blend-mode:color-burn;}.cls-13{fill:url(#linear-gradient);}.cls-14{fill:#110812;}.cls-15{fill:url(#linear-gradient-2);}.cls-16,.cls-25,.cls-27,.cls-45{mix-blend-mode:multiply;}.cls-17{fill:#607080;}.cls-18{fill:url(#linear-gradient-3);}.cls-19{fill:#673a71;}.cls-20{fill:url(#linear-gradient-4);}.cls-21{fill:url(#linear-gradient-5);}.cls-22{fill:#f99f27;}.cls-23{fill:url(#linear-gradient-6);}.cls-24{fill:url(#linear-gradient-7);}.cls-25{opacity:0.15;}.cls-26,.cls-29{fill:#cf3838;}.cls-27{opacity:0.25;}.cls-28{fill:#bd221e;}.cls-29{opacity:0.12;}.cls-30{fill:url(#linear-gradient-8);}.cls-31{fill:url(#linear-gradient-9);}.cls-32{fill:#fffeff;}.cls-33{fill:url(#linear-gradient-10);}.cls-34{fill:url(#linear-gradient-11);}.cls-35{fill:url(#linear-gradient-12);}.cls-36{fill:url(#linear-gradient-13);}.cls-37{fill:url(#linear-gradient-14);}.cls-38{fill:#df3128;}.cls-39{fill:url(#linear-gradient-15);}.cls-40{fill:url(#linear-gradient-16);}.cls-41{fill:url(#linear-gradient-17);}.cls-42{fill:url(#linear-gradient-18);}.cls-43{fill:#784b86;}.cls-44{fill:#421d46;}.cls-46{fill:url(#linear-gradient-19);}.cls-47{fill:url(#linear-gradient-20);}.cls-48{fill:url(#linear-gradient-21);}.cls-49{fill:url(#linear-gradient-22);}.cls-50{fill:url(#linear-gradient-23);}.cls-51{fill:#ef8b1b;}.cls-52{clip-path:url(#clip-path);}.cls-53{clip-path:url(#clip-path-2);}.cls-54{clip-path:url(#clip-path-3);}.cls-55{clip-path:url(#clip-path-4);}.cls-56{clip-path:url(#clip-path-5);}.cls-57{clip-path:url(#clip-path-6);}</style><linearGradient id="linear-gradient" x1="265.79" y1="254.21" x2="256.36" y2="252.81" gradientUnits="userSpaceOnUse"><stop offset="0.01" stop-color="#ebeaf0"/><stop offset="0.99" stop-color="#e5e4ec"/></linearGradient><linearGradient id="linear-gradient-2" x1="251.86" y1="312.55" x2="258.17" y2="312.55" xlink:href="#linear-gradient"/><linearGradient id="linear-gradient-3" x1="233.15" y1="320.62" x2="245.73" y2="320.62" xlink:href="#linear-gradient"/><linearGradient id="linear-gradient-4" x1="253.48" y1="296.96" x2="257.54" y2="296.96" xlink:href="#linear-gradient"/><linearGradient id="linear-gradient-5" x1="240.96" y1="295.52" x2="248.64" y2="295.52" xlink:href="#linear-gradient"/><linearGradient id="linear-gradient-6" x1="241.69" y1="258.18" x2="252.27" y2="258.18" xlink:href="#linear-gradient"/><linearGradient id="linear-gradient-7" x1="255.04" y1="240.89" x2="261.28" y2="240.89" xlink:href="#linear-gradient"/><linearGradient id="linear-gradient-8" x1="214.73" y1="255.11" x2="229.84" y2="255.11" xlink:href="#linear-gradient"/><linearGradient id="linear-gradient-9" x1="230.38" y1="249.61" x2="244.76" y2="249.61" xlink:href="#linear-gradient"/><linearGradient id="linear-gradient-10" x1="693.14" y1="163.09" x2="704.52" y2="163.09" gradientTransform="matrix(-1, 0, 0, 1, 919.78, 0)" xlink:href="#linear-gradient"/><linearGradient id="linear-gradient-11" x1="706.75" y1="153.26" x2="719.07" y2="153.26" gradientTransform="matrix(-1, 0, 0, 1, 919.78, 0)" xlink:href="#linear-gradient"/><linearGradient id="linear-gradient-12" x1="704.26" y1="148.91" x2="671.07" y2="127.01" gradientTransform="matrix(-1, 0, 0, 1, 919.78, 0)" xlink:href="#linear-gradient"/><linearGradient id="linear-gradient-13" x1="714.21" y1="143.41" x2="690.19" y2="127.55" gradientTransform="matrix(-1, 0, 0, 1, 919.78, 0)" xlink:href="#linear-gradient"/><linearGradient id="linear-gradient-14" x1="704.99" y1="97.47" x2="691.17" y2="110.22" gradientTransform="matrix(-1, 0, 0, 1, 919.78, 0)" xlink:href="#linear-gradient"/><linearGradient id="linear-gradient-15" x1="684.42" y1="103.29" x2="673.36" y2="114.1" gradientTransform="matrix(-1, 0, 0, 1, 919.78, 0)" xlink:href="#linear-gradient"/><linearGradient id="linear-gradient-16" x1="694.97" y1="91.97" x2="675.72" y2="90.38" gradientTransform="matrix(-1, 0, 0, 1, 919.78, 0)" xlink:href="#linear-gradient"/><linearGradient id="linear-gradient-17" x1="686.51" y1="109.78" x2="670.87" y2="115.56" gradientTransform="matrix(-1, 0, 0, 1, 919.78, 0)" xlink:href="#linear-gradient"/><linearGradient id="linear-gradient-18" x1="679.84" y1="82.28" x2="694.4" y2="82.28" gradientTransform="matrix(-1, 0, 0, 1, 919.78, 0)" xlink:href="#linear-gradient"/><linearGradient id="linear-gradient-19" x1="37.84" y1="241.11" x2="40.66" y2="241.11" xlink:href="#linear-gradient"/><linearGradient id="linear-gradient-20" x1="31.64" y1="207.75" x2="47.05" y2="207.75" xlink:href="#linear-gradient"/><linearGradient id="linear-gradient-21" x1="68.52" y1="191.31" x2="78.86" y2="191.31" xlink:href="#linear-gradient"/><linearGradient id="linear-gradient-22" x1="52.66" y1="204.32" x2="71.67" y2="204.32" xlink:href="#linear-gradient"/><linearGradient id="linear-gradient-23" x1="46.68" y1="252.97" x2="53.19" y2="252.97" gradientTransform="translate(1.24 -2.05) rotate(0.25)" xlink:href="#linear-gradient"/><clipPath id="clip-path"><path class="cls-1" d="M220.66,186.83l1.12.65a1.85,1.85,0,0,0-1.87.18l-1.13-.65A1.87,1.87,0,0,1,220.66,186.83Z"/></clipPath><clipPath id="clip-path-2"><path class="cls-2" d="M170,235.23l-1.12-.66a1.84,1.84,0,0,1-.77-1.68l1.13.65A1.85,1.85,0,0,0,170,235.23Z"/></clipPath><clipPath id="clip-path-3"><path class="cls-1" d="M169.2,220l-1.13-.65a5.8,5.8,0,0,1,2.63-4.55l1.12.66A5.8,5.8,0,0,0,169.2,220Z"/></clipPath><clipPath id="clip-path-4"><path class="cls-1" d="M165.2,260.76l1.54.89a2.58,2.58,0,0,0-2.56.25l-1.53-.89A2.54,2.54,0,0,1,165.2,260.76Z"/></clipPath><clipPath id="clip-path-5"><path class="cls-1" d="M120.94,326.25l-1.54-.89a2.54,2.54,0,0,1-1.05-2.3l1.54.89A2.49,2.49,0,0,0,120.94,326.25Z"/></clipPath><clipPath id="clip-path-6"><path class="cls-1" d="M119.8,291.66l-1.54-.89a7.92,7.92,0,0,1,3.58-6.2l1.53.9A7.85,7.85,0,0,0,119.8,291.66Z"/></clipPath></defs><title>svg-2</title><g class="cls-3"><g id="Capa_2" data-name="Capa 2"><g id="Layer_1" data-name="Layer 1"><polygon class="cls-4" points="345.5 315.84 226.8 384.36 108.11 315.84 226.8 247.31 345.5 315.84"/><polygon class="cls-4" points="318.95 123.89 222.05 179.84 105.77 113.05 202.67 57.1 318.95 123.89"/><polygon class="cls-4" points="115.42 262.91 57.49 295.86 0 262.17 57.93 229.22 115.42 262.91"/><path class="cls-5" d="M163.51,310.36l-3.82,14.55s-.42.5-.42.5L158,327.08l-.18-.06-2.8-1.66a3.55,3.55,0,0,1-1.54-3.27V266.5l3,1.76Z"/><path class="cls-6" d="M246.1,200.42l-2.85-1.69c-1.18-.72-2.95-.58-4.92.55L152.26,249c-3.54,2.05-6.43,6.59-6.43,10.14V314.7a3.55,3.55,0,0,0,1.53,3.27l2.81,1.66a.41.41,0,0,0,.13.08l1.36-1.69.4-.49.2-.11,69.65-40.21.81-.45,3.69-2.15,1.9-1.09,3-1.75,7-4a12.92,12.92,0,0,0,3.2-2.7,16.36,16.36,0,0,0,1.09-1.43,12,12,0,0,0,.82-1.36,10.41,10.41,0,0,0,1.3-4.35c0-.1,0-.2,0-.29V202.27l.07-.09,1.37-1.71A.26.26,0,0,0,246.1,200.42Z"/><path class="cls-7" d="M304,299.58v3.6a2.87,2.87,0,0,1-.56,1.65,5.16,5.16,0,0,1-1.67,1.45l-44.09,25.46-44.09,25.45a11.9,11.9,0,0,1-10.74,0l-24.12-13.91-24.12-13.91a4.93,4.93,0,0,1-1.73-1.56,2.8,2.8,0,0,1-.47-1.76v-3.36Z"/><path class="cls-5" d="M202.8,341.84v15.35l-24.12-13.91-24.12-13.91a4.93,4.93,0,0,1-1.73-1.56,2.8,2.8,0,0,1-.47-1.76v-3.36Z"/><path class="cls-6" d="M301.72,302.68l-88.18,50.91a11.86,11.86,0,0,1-10.73,0l-48.24-27.82c-3-1.71-3-4.48,0-6.19l88.19-50.92a11.84,11.84,0,0,1,10.72,0l48.24,27.82a3.27,3.27,0,0,1,0,6.2Z"/><path class="cls-8" d="M286.9,292l-91.85,53-14.62-8.43L163.83,327l-2.44-1.4,91.85-53,6,3.47Z"/><polygon class="cls-8" points="226.8 328.65 258.6 310.3 270.6 317.3 238.81 335.65 226.8 328.65"/><polygon class="cls-8" points="157.96 319.66 242.75 270.71 247.95 273.78 163.17 322.73 157.96 319.66"/><path class="cls-7" d="M246.19,200.47a.26.26,0,0,0-.09-.05c-1.17-.64-2.9-.49-4.8.61l-86.05,49.69c-3.56,2.05-6.44,6.59-6.44,10.15v55.59a3.68,3.68,0,0,0,1.36,3.17.41.41,0,0,0,.13.08c1.17.74,3,.61,4.95-.54l72.34-41.75s3.56-2.07,3.56-2.07l10.15-5.85.54-.34a3.68,3.68,0,0,0,.51-.37,9.66,9.66,0,0,0,1.26-1.07,14.32,14.32,0,0,0,1.89-2.21,11.37,11.37,0,0,0,2.23-6.16v-55.6A3.56,3.56,0,0,0,246.19,200.47Z"/><path class="cls-9" d="M244.82,202.18a1.84,1.84,0,0,0-.31,0,4.55,4.55,0,0,0-2.14.71L156.3,252.55c-2.86,1.66-5.37,5.54-5.37,8.32v55.59c0,1.14.39,1.47.73,1.56a1.33,1.33,0,0,0,.38,0,4.5,4.5,0,0,0,2.14-.72l68.26-39.41.61-.36,2.8-1.6,2.25-1.3,3.23-1.87,8.91-5.15a7.91,7.91,0,0,0,1.3-.92,8.31,8.31,0,0,0,.87-.82,13.63,13.63,0,0,0,1.15-1.35,11.88,11.88,0,0,0,1.62-3,6.59,6.59,0,0,0,.43-2.21v-55.6C245.61,202.54,245.18,202.26,244.82,202.18Z"/><path class="cls-7" d="M196.15,235.91v50.84L220,273l1.14-.66,1.67-1,.45-.26.92-.54,4.11-2.37.17-.09,2.23-1.29,8.53-4.93V211Z"/><polygon class="cls-7" points="157.29 292.64 193.33 271.84 193.33 237.54 157.29 258.35 157.29 292.64"/><path class="cls-7" d="M158.3,308.6l34-19.64a2.08,2.08,0,0,0,1-1.59c0-.56-.45-.75-1-.43l-34,19.64a2.14,2.14,0,0,0-1,1.59C157.29,308.73,157.75,308.92,158.3,308.6Z"/><path class="cls-10" d="M158.3,302.75l34-19.64a2.08,2.08,0,0,0,1-1.59c0-.55-.45-.74-1-.42l-34,19.64a2.1,2.1,0,0,0-1,1.59C157.29,302.88,157.75,303.08,158.3,302.75Z"/><path class="cls-11" d="M158.3,296.91l34-19.64a2.09,2.09,0,0,0,1-1.59c0-.56-.45-.75-1-.43l-34,19.64a2.1,2.1,0,0,0-1,1.59C157.29,297,157.75,297.23,158.3,296.91Z"/><path class="cls-9" d="M235.59,259.5l-35.78,20.66a1.71,1.71,0,0,0-.82,1.3c0,.45.37.61.82.35l35.78-20.66a1.72,1.72,0,0,0,.83-1.3C236.42,259.39,236.05,259.24,235.59,259.5Z"/><path class="cls-9" d="M203.92,278.61a3.38,3.38,0,0,1-1.64,2.58c-.9.52-1.63.21-1.63-.69a3.4,3.4,0,0,1,1.63-2.58C203.19,277.4,203.92,277.71,203.92,278.61Z"/><path class="cls-9" d="M217.93,254.17c-3,1.75-5.5.71-5.5-2.32s2.47-6.92,5.5-8.67,5.5-.71,5.5,2.32S221,252.42,217.93,254.17Zm0-10.28c-2.64,1.52-4.79,4.91-4.79,7.55s2.15,3.55,4.79,2,4.79-4.92,4.79-7.56S220.57,242.36,217.93,243.89Z"/><polygon class="cls-9" points="216.27 247.31 216.27 251.97 220.3 247.31 216.27 247.31"/><path class="cls-12" d="M216.1,253.56a2.65,2.65,0,0,0-.66-.41,6.45,6.45,0,0,0-2.44-.55c-2.17-.1-3.92-.91-4.25-1.38a1.48,1.48,0,0,1-.26-1l1.12.5a20.12,20.12,0,0,1-2.1-1.19c-.46-.38,0-1,0-1s2.32-1.13,3.83-.6c.52.15,4.19,2.65,7,3.36S216.1,253.56,216.1,253.56Z"/><path class="cls-10" d="M265.55,260a4.62,4.62,0,0,1-2.28.74,4.35,4.35,0,0,1-2.26-.1c-.36-.27-.28-8-.16-13.81.07-3.59.16-6.48.16-6.48s3.47,1.68,4.07,7.48S266.22,259.32,265.55,260Z"/><path class="cls-13" d="M263.27,260.76a4.35,4.35,0,0,1-2.26-.1c-.36-.27-.28-8-.16-13.81a2.06,2.06,0,0,0,.24-.58c.19.19,1.74,1,1.74,1S263.77,257.65,263.27,260.76Z"/><path class="cls-14" d="M262.2,315.69c-.17,1-1.87,2-4,1.2l-.2-.07c-2.26-.9-2.12-2.64-4.1-4.56s-2.08-3.7-2-4,3.59.43,5.16.76a3.57,3.57,0,0,1,1,.41,25.36,25.36,0,0,1,3.88,3A13,13,0,0,1,262.2,315.69Z"/><path class="cls-15" d="M258.17,316.89l-.2-.07c-2.26-.9-2.12-2.64-4.1-4.56s-2.08-3.7-2-4,3.59.43,5.16.76a3.57,3.57,0,0,1,1,.41,45.84,45.84,0,0,0-.28,6.52A2.11,2.11,0,0,0,258.17,316.89Z"/><g class="cls-16"><ellipse class="cls-17" cx="248.4" cy="313.99" rx="15.02" ry="8.67"/></g><path class="cls-14" d="M246.35,323.3c-.21,0-.41,0-.62,0a31.23,31.23,0,0,1-4.91-.68c-2.24-.36-3.19.15-5.6-.7a2.89,2.89,0,0,1-2.07-2.45.92.92,0,0,1,.78-.84c4.83-.2,8-.63,8-.63a17.05,17.05,0,0,1,2.13-.08c1.76,0,4,.32,4.24,1.61C248.78,321.71,248.24,323.2,246.35,323.3Z"/><path class="cls-18" d="M245.73,323.32a31.23,31.23,0,0,1-4.91-.68c-2.24-.36-3.19.15-5.6-.7a2.89,2.89,0,0,1-2.07-2.45.92.92,0,0,1,.78-.84c4.83-.2,8-.63,8-.63a17.05,17.05,0,0,1,2.13-.08l-.13,2.88A20.58,20.58,0,0,0,245.73,323.32Z"/><path class="cls-19" d="M262.74,274.74S262,285.2,262.05,289a60.94,60.94,0,0,0,.39,6.93c.11.84-.36,16.23-.36,16.23a1.72,1.72,0,0,1-1,1.4,5.47,5.47,0,0,1-3.76.42,4.12,4.12,0,0,1-1.08-.42,1.7,1.7,0,0,1-1-1.4s.15-15,0-17.4c-.12-1.7-1.15-7.61-1.74-10.94l-5,12.95V319a1.67,1.67,0,0,1-1,1.39,5.3,5.3,0,0,1-3.56.47,3.93,3.93,0,0,1-1.27-.47,1.67,1.67,0,0,1-1-1.39L241,296.53s.15-16.29,3-25.8l3.56-.52,14-2.06S263.11,272.43,262.74,274.74Z"/><path class="cls-20" d="M257.54,295.94,257.32,314a4.12,4.12,0,0,1-1.08-.42,1.7,1.7,0,0,1-1-1.4s.15-15,0-17.4c-.12-1.7-1.15-7.61-1.74-10.94l2.18-3.9Z"/><path class="cls-21" d="M244,294.54c-.29,3.63-.11,20.28,0,26.28a3.93,3.93,0,0,1-1.27-.47,1.67,1.67,0,0,1-1-1.39L241,296.53s.15-16.29,3-25.8l3.56-.52,1.13,3.5S244.34,290.1,244,294.54Z"/><path class="cls-22" d="M262.88,271.6l-.34.25c-.2.15-.52.35-.94.6a19.52,19.52,0,0,1-9.34,2.18,33.14,33.14,0,0,1-3.83-.16c-.61-.06-1.15-.14-1.65-.24a9.83,9.83,0,0,1-1-.24l-.41-.11-.06,0-.35-.12a5.15,5.15,0,0,1-.94-.46l-.24-.15a4.29,4.29,0,0,1-.38-.33c-.06-.05-.1-.11-.15-.16a2,2,0,0,1-.27-.49c0-.05,0-.11,0-.16a.41.41,0,0,1,0-.16,2.81,2.81,0,0,1,0-.52l0-.19,0-.21c.1-.65.28-1.55.48-2.55l.06-.33c.08-.4.15-.81.22-1.21,0-.18.07-.36.1-.53a19.21,19.21,0,0,0,.37-5.54,14.15,14.15,0,0,0-.64-2.15c-.3-.82-.65-1.75-1-2.74,0-.15-.08-.29-.13-.44s-.09-.28-.13-.43-.09-.3-.13-.44l-.12-.45a14.58,14.58,0,0,1-.45-3.33,8.23,8.23,0,0,1,.36-2.46s0-.05,0-.07a2.21,2.21,0,0,1,.14-.41,1.89,1.89,0,0,1,.16-.36.41.41,0,0,1,.05-.09,5.85,5.85,0,0,1,.75-1.2l.35-.29a11.62,11.62,0,0,1,1.13-.83c.24-.17.53-.35.84-.55.48-.29,1-.58,1.64-.9a.1.1,0,0,0,.05,0l.59-.26c.14-.08.27-.13.42-.2l.73-.3.07,0c.06,0,.15,0,.22-.09l.17-.06.16-.06c.38-.16.76-.29,1.16-.42l.18,0A29,29,0,0,1,255,241c.52-.1,1.08-.19,1.63-.26a35.75,35.75,0,0,1,4.33-.36,4.68,4.68,0,0,1,.28.44,12.53,12.53,0,0,1,1.52,7c-.16,1.66-.37,3.22-.55,4.77a47,47,0,0,0-.45,8.15c.13,2.9.5,6.26.75,8.45C262.74,270.64,262.88,271.6,262.88,271.6Z"/><path class="cls-23" d="M247.66,262.59c.44,2.78-.47,9.07-.88,11.64a9.83,9.83,0,0,1-1-.24l-.41-.11-.06,0-.35-.12a5.15,5.15,0,0,1-.94-.46l-.24-.15a4.29,4.29,0,0,1-.38-.33c-.06-.05-.1-.11-.15-.16a2,2,0,0,1-.27-.49c0-.05,0-.11,0-.16a.78.78,0,0,1,0-.16,2.63,2.63,0,0,1,0-.52l0-.19,0-.21c.1-.65.28-1.55.48-2.55l.06-.33c.08-.4.15-.81.22-1.21,0-.18.07-.36.1-.53a19.21,19.21,0,0,0,.37-5.54,14.15,14.15,0,0,0-.64-2.15c-.29-.83-.64-1.76-1-2.75,0-.14-.09-.28-.14-.43s-.09-.28-.13-.43-.09-.3-.13-.44-.07-.3-.11-.45a14.06,14.06,0,0,1-.46-3.33,8.23,8.23,0,0,1,.36-2.46s0-.05,0-.07l0-.07a3.38,3.38,0,0,1,.11-.34,1.89,1.89,0,0,1,.16-.36.2.2,0,0,0,.05-.09,5.85,5.85,0,0,1,.75-1.2l.35-.29a11.62,11.62,0,0,1,1.13-.83c.24-.17.53-.35.84-.55.48-.29,1-.58,1.64-.9a.1.1,0,0,0,.05,0l.59-.26c.14-.08.27-.13.42-.2l.73-.3.07,0c.06,0,.15,0,.22-.09l.17-.06.16-.06c.38-.16.76-.29,1.16-.42l1.56.26c-5.11,3.11-4.19,2.2-6.36,3.88l-1.31,1.52,2,6.91S247.12,259.07,247.66,262.59Z"/><path class="cls-24" d="M261.28,240.82l-.28,0c-1.29.11-3.24.34-4.33.47l-.83.1L255,241c.53-.1,1.07-.19,1.63-.27a35.82,35.82,0,0,1,4.33-.35A4.68,4.68,0,0,1,261.28,240.82Z"/><path class="cls-12" d="M256.7,239.74c0,.45,0,1,0,1.47s0,.48,0,.35a1.27,1.27,0,0,1-.73,1.06,8.51,8.51,0,0,1-4.23.83,4,4,0,0,1-.8-.1,6.41,6.41,0,0,1-1.67-.68c0-.13.08-.94.16-2.54a.45.45,0,0,0-.3-.44,3.72,3.72,0,0,1-2.39-2c-.49-1-.77-6.12-.78-6.18s.09-.06.28,0a9.57,9.57,0,0,1,1.11.7l.26.18C250.57,234.55,256.7,239.57,256.7,239.74Z"/><g class="cls-25"><path class="cls-26" d="M250.89,239.78v3.57a6.41,6.41,0,0,1-1.67-.68c0-.13.08-.94.16-2.54a.45.45,0,0,0-.3-.44,3.72,3.72,0,0,1-2.39-2c-.49-1-.77-6.12-.78-6.18s.09-.06.28,0c.43.41.88.75,1.11.7a.11.11,0,0,0,.08,0c.07-.05.13,0,.18.21.29,1.05,1,.81,1.6,1.36S250.89,239.78,250.89,239.78Z"/></g><path class="cls-14" d="M259.19,233.3c-.19.79-1,2.55-1.11,3.35a23,23,0,0,1-1.38,3.09,8.31,8.31,0,0,1-4.06.89,2.16,2.16,0,0,1-.51-.08l-.29-.13a3.79,3.79,0,0,1-2.09-2.54l-.06-.26a3.9,3.9,0,0,1-.08-1.18c0-.21,0-.44,0-.7-.07-1.37-.7-1.57-1.17-1.66s-.57,1.39-.57,1.39l-.65-.21-.1-2.13a.94.94,0,0,0-.22-.6c-.51-.58-2.32-1-2.31-3.23,0-1,1.1-4.65,6.59-4.7a14.35,14.35,0,0,1,2.43.18C259.57,225.67,259.67,231.32,259.19,233.3Z"/><g class="cls-27"><path class="cls-28" d="M252.64,240.63a2.16,2.16,0,0,1-.51-.08l-.29-.13a3.79,3.79,0,0,1-2.09-2.54l-.06-.26a3.9,3.9,0,0,1-.08-1.18c0-.21,0-.44,0-.7-.07-1.37-.7-1.57-1.17-1.66s-.57,1.39-.57,1.39l-.65-.21-.1-2.13a.94.94,0,0,0-.22-.6c-.51-.58-2.32-1-2.31-3.23,0-1,1.1-4.65,6.59-4.7-1.74.9-4.79,2.81-3.29,4.61a12,12,0,0,1,2.55,7.38A4.72,4.72,0,0,0,252.64,240.63Z"/></g><path class="cls-29" d="M215.91,252.17l-.47,1a6.45,6.45,0,0,0-2.44-.55c-2.17-.1-3.92-.91-4.25-1.38a1.48,1.48,0,0,1-.26-1l1.12.5a20.12,20.12,0,0,1-2.1-1.19c-.46-.38,0-1,0-1l.5.68a20.47,20.47,0,0,0,2.78,1.73l1.19.64C212.71,252.05,215.91,252.17,215.91,252.17Z"/><path class="cls-10" d="M242.86,256.45l-13,2.12-14.44-4.45a1,1,0,0,1-.67-1.05,3,3,0,0,1,.41-1.41,4,4,0,0,1,1.46-1.55,1.88,1.88,0,0,1,.94-.28,1.27,1.27,0,0,1,.28,0l12.38,2.69a.34.34,0,0,0,.18,0l12.48-6a4.15,4.15,0,0,1,1.9,1,3.57,3.57,0,0,1,1.15,2.07C246.4,252.27,244.81,256.14,242.86,256.45Z"/><path class="cls-30" d="M215.4,254.12a1,1,0,0,1-.67-1.05,3,3,0,0,1,.41-1.41c2.28.87,13.19,4.35,14.7,6.91Z"/><path class="cls-31" d="M244.76,247.59c-.44.19-11.91,5.1-14.38,5l12.48-6A4.15,4.15,0,0,1,244.76,247.59Z"/><path class="cls-7" d="M145,99.66v3.54a2.91,2.91,0,0,0,.54,1.62,5.12,5.12,0,0,0,1.65,1.42L190.6,131.3l15.65,9,.07,0,4.76,2.74,3.45,2,1.89,1.1,3.61,2.08.4.23.07,0,.56.32,1.7,1,2.75,1.59,8.47,4.89a11.67,11.67,0,0,0,10.55,0l23.74-13.68L292,129a4.82,4.82,0,0,0,1.71-1.54,2.8,2.8,0,0,0,.47-1.74v-3.3l-6.17-.93-2.23-.35-6.13-.93-4.34-.66-42.25-6.44-.89-.14-.88-.13-.72-.11-.47-.08-.18,0-.29,0-5.16-.79-.29,0-38.82-5.92Z"/><path class="cls-5" d="M244.53,151.69v4.65l23.74-13.68L292,129a4.82,4.82,0,0,0,1.71-1.54,2.8,2.8,0,0,0,.47-1.74v-3.3a3.64,3.64,0,0,0-2.18-3l-.52-.31L288,121.46l-4.24,3L269,134.66Z"/><path class="cls-6" d="M145,99.66a3.73,3.73,0,0,0,2.19,3l58,33.49,4.15,2.4,2.29,1.33,3.38,1.94,1.67,1,2.69,1.57.52.29.38.22,3.06,1.76.19.11.34.2.22.13,1.82,1,8,4.64a11.67,11.67,0,0,0,10.55,0L292,125.43a3.81,3.81,0,0,0,2.18-2.91v-.13a3.64,3.64,0,0,0-2.18-3l-.52-.31-84.81-49-1.43-.82a11.67,11.67,0,0,0-10.55,0L147.22,96.61A3.7,3.7,0,0,0,145,99.66Z"/><path class="cls-8" d="M161.8,92.21l90.37,52.17,14.38-8.3,16.33-9.41,2.4-1.39L194.91,73.11,189,76.53Z"/><polygon class="cls-8" points="220.93 128.26 189.65 110.2 177.84 117.09 209.12 135.15 220.93 128.26"/><polygon class="cls-8" points="288.65 119.41 205.24 71.25 200.12 74.27 283.53 122.43 288.65 119.41"/><path class="cls-6" d="M201.85,2.15l1.41,1.76V58.35c0,3.49,2.83,8,6.33,10l75.9,43.82,8.77,5.06.2.1,1.73,2.16,2.9-1.71a3.55,3.55,0,0,0,1.5-3.22V59.84c0-3.49-2.84-8-6.33-10L209.59,1c-1.94-1.12-3.68-1.24-4.85-.53Z"/><path class="cls-5" d="M285.49,112.15l8.77,5.06.2.1,1.73,2.16,2.9-1.71a3.55,3.55,0,0,0,1.5-3.22V59.84l-2.94,1.73-4.84,17.9L288,95.74C286.83,96.07,285.9,106.71,285.49,112.15Z"/><path class="cls-7" d="M200.34,5.38v54.7c0,3.49,2.83,8,6.32,10l84.67,48.87a.65.65,0,0,0,.16.09,5,5,0,0,0,4.22.67,3,3,0,0,0,.48-.22,3.55,3.55,0,0,0,1.46-3.2V61.57c0-3.49-2.83-8-6.32-10L206.66,2.7c-1.88-1.08-3.57-1.24-4.73-.59l-.08,0A3.49,3.49,0,0,0,200.34,5.38Z"/><path class="cls-32" d="M294.49,117.83c.35,0,1.08,0,1.08-1.57V61.57c0-2.73-2.47-6.55-5.28-8.18L205.62,4.51a4.54,4.54,0,0,0-2.12-.7c-.35,0-1.08,0-1.08,1.57v54.7c0,2.72,2.47,6.54,5.29,8.17l84.66,48.88A4.57,4.57,0,0,0,294.49,117.83Z"/><polygon class="cls-2" points="209.06 20.07 288.94 66.19 288.94 61.49 209.06 15.37 209.06 20.07"/><polygon class="cls-1" points="245.97 45.81 288.94 70.62 288.94 68.27 245.97 43.47 245.97 45.81"/><polygon class="cls-1" points="245.97 51.42 288.94 76.22 288.94 73.88 245.97 49.07 245.97 51.42"/><polygon class="cls-1" points="245.97 57.03 288.94 81.83 288.94 79.48 245.97 54.68 245.97 57.03"/><polygon class="cls-1" points="245.97 62.63 288.94 87.44 288.94 85.09 245.97 60.28 245.97 62.63"/><polygon class="cls-1" points="245.97 68.24 288.94 93.05 288.94 90.7 245.97 65.89 245.97 68.24"/><polygon class="cls-1" points="245.97 73.85 288.94 98.65 288.94 96.3 245.97 71.5 245.97 73.85"/><polygon class="cls-1" points="209.06 58.14 288.94 104.26 288.94 101.91 209.06 55.79 209.06 58.14"/><polygon class="cls-1" points="209.06 63.75 288.94 109.86 288.94 107.52 209.06 61.4 209.06 63.75"/><polygon class="cls-1" points="209.06 52.53 242.62 71.91 242.62 41.53 209.06 22.15 209.06 52.53"/><path class="cls-14" d="M211.53,167.53c.21.48,2,.55,3.73.46a23.35,23.35,0,0,0,3.79-.46c1-.32,7.28-6.11,7.54-6.58s-.49-2.43-.49-2.43l-3.3-.33-2.94-.29s-3.24,3.84-4,4.54S211.14,166.59,211.53,167.53Z"/><path class="cls-14" d="M200.71,157.62a1.8,1.8,0,0,0,.65,1c.62.21,6.78-4.79,7.38-5.68s4-1.3,4.25-1.85-.47-2.24-.47-2.24a19.19,19.19,0,0,0-2.73-1c-1.49-.43-3.08-.62-3.43.4-.69,2-5.07,5.19-5.75,6.23C200.16,155.15,200.35,156.61,200.71,157.62Z"/><path class="cls-33" d="M215.26,168a23.35,23.35,0,0,0,3.79-.46c1-.32,7.28-6.11,7.54-6.58s-.49-2.43-.49-2.43l-3.3-.33c-.76,1.82-2.52,5.74-4.22,7.24A34.23,34.23,0,0,1,215.26,168Z"/><path class="cls-34" d="M200.71,157.62a1.8,1.8,0,0,0,.65,1c.62.21,6.78-4.79,7.38-5.68s4-1.3,4.25-1.85-.47-2.24-.47-2.24a19.19,19.19,0,0,0-2.73-1,10.78,10.78,0,0,1-2.51,4.23A82.48,82.48,0,0,1,200.71,157.62Z"/><path class="cls-19" d="M205.16,146.68c0,1.37,0,2.21,0,2.21a2,2,0,0,0,1.2,1.67,6.44,6.44,0,0,0,4.29.57,5,5,0,0,0,1.55-.57,2,2,0,0,0,1.21-1.67s.13-18.25.89-19.46,10.57-4.68,10.57-4.68c-.29.39-4.7,6.34-5.26,8.21s-.87,25.27-.87,25.27a2,2,0,0,0,1.22,1.68,6.18,6.18,0,0,0,3.27.7,5.77,5.77,0,0,0,2.56-.7,2,2,0,0,0,1.2-1.73c-.05-1.08.52-19.8,1-20.19s13.09-9.59,15.26-13-2.1-9.39-2.1-9.39l-3.43,1-.23,0S226,113.7,226,113.7s-18.21,8.78-19.59,11.93C205.27,128.14,205.16,141.38,205.16,146.68Z"/><path class="cls-35" d="M223.24,160.61a5.77,5.77,0,0,0,2.56-.7,2,2,0,0,0,1.2-1.73c-.05-1.08.52-19.8,1-20.19s13.09-9.59,15.26-13-2.1-9.39-2.1-9.39l-3.43,1-.23,0c.57,1.42,1.68,6.67-.56,9-2.53,2.59-12.13,8.68-13.14,10.65C223.08,137.67,223.15,152.81,223.24,160.61Z"/><path class="cls-36" d="M210.66,151.13a5,5,0,0,0,1.55-.57,2,2,0,0,0,1.21-1.67s.13-18.25.89-19.46,10.57-4.68,10.57-4.68l1.71-1.75s-13.24,2-14.89,5.24C210.32,131,210.56,146.31,210.66,151.13Z"/><polygon class="cls-5" points="219.86 139.49 219.86 138.51 235.66 129.38 235.66 130.36 219.86 139.49"/><polygon class="cls-7" points="198.33 126.08 198.33 127.06 219.86 139.49 219.86 138.51 198.33 126.08"/><polygon class="cls-6" points="219.86 138.51 209.09 132.3 198.33 126.08 214.13 116.95 235.66 129.38 219.86 138.51"/><path class="cls-11" d="M213.42,115.86l3.37,3.58,1.67,1.78s7.48-11.63,8.13-12.28.44-4.32,0-13.52c-.25-5.19-.69-7.41-1-8.36-.24-.7-.42-.72-.44-.72-1.84.11-3.32,2-4.19,5.08s-.06,13.52-.06,13.52Z"/><path class="cls-37" d="M216.79,119.44l1.67,1.78s7.48-11.63,8.13-12.28.44-4.32,0-13.52c-.25-5.19-.69-7.41-1-8.36H224.4s-2.17,4.91-2.05,7.57,2.18,10,2.05,13.19Z"/><path class="cls-28" d="M213,117a5.87,5.87,0,0,0,2.83,4.47c1.57.9,2.84.37,2.84-1.2a5.89,5.89,0,0,0-2.84-4.47C214.26,114.93,213,115.47,213,117Z"/><path class="cls-38" d="M222.82,100s2.49,4.32,2.71,6,.43,7.68.43,7.68,2.23,5.21,10.16,5.62a23.59,23.59,0,0,0,5.63-.43,24.57,24.57,0,0,0,4.24-12,24.27,24.27,0,0,0,.07-3c0-.29,0-.58,0-.88a27.13,27.13,0,0,0-1.49-7.08c-.07-.17-.13-.35-.19-.52,0,0-9.7-7.78-19.21-9.08a3.58,3.58,0,0,0-.73.72C223.31,88.42,221.48,92,222.82,100Z"/><path class="cls-39" d="M236.12,119.32a23.59,23.59,0,0,0,5.63-.43,24.57,24.57,0,0,0,4.24-12l.07-3,0-.72L246,103l-2.76-7.29s-4.22,1.54-4.59,9.1A76.13,76.13,0,0,1,236.12,119.32Z"/><path class="cls-40" d="M224.4,87.06c6.16.73,18.86,8.67,18.86,8.67l1.27.21c-.07-.17-.13-.35-.19-.52,0,0-9.7-7.78-19.21-9.08A3.58,3.58,0,0,0,224.4,87.06Z"/><path class="cls-11" d="M224.88,120.4l2.94,4.47,1.16,1.77s17.2-5,17.85-5.7,1.73-5.84,1.29-15-3.78-10.49-3.78-10.49a2.45,2.45,0,0,0-1.08.31c-1.28.66-2.23,2.37-2.92,4.77-.87,3,.86,15.14.86,15.14Z"/><path class="cls-41" d="M227.82,124.87l1.16,1.77s17.2-5,17.85-5.7,1.73-5.84,1.29-15-3.78-10.49-3.78-10.49a2.45,2.45,0,0,0-1.08.31,52.3,52.3,0,0,1,2.1,22.93l-17.14,4.79Z"/><path class="cls-28" d="M224,121.93a5.87,5.87,0,0,0,2.83,4.46c1.57.91,2.83.37,2.83-1.19a5.85,5.85,0,0,0-2.83-4.47C225.27,119.83,224,120.36,224,121.93Z"/><path class="cls-12" d="M218.63,127l.27.69a1.53,1.53,0,0,0,.5.62,1.44,1.44,0,0,0,1.09.24,1.09,1.09,0,0,0,.63-.34,3.27,3.27,0,0,1,2-1c1-.08,2.33-.19,2.71-.18a7.51,7.51,0,0,0,1-.6c.81-.53,1.93-1.3,2.73-1.83a5,5,0,0,0-.53-1.44,6.42,6.42,0,0,0-1.37-1.78c-1.26.49-2.37,1.08-3.69.79-.07,0-1.37-.3-1.37-.3a1,1,0,0,0-.89.27L219,124.94A1.87,1.87,0,0,0,218.63,127Z"/><path class="cls-12" d="M208.81,124l.85.6.76.53s2.63-4.62,3.82-4.52c.62.06.5,1,.25,1.8a11.61,11.61,0,0,1-.58,1.54,4,4,0,0,0,2-.74,6.13,6.13,0,0,0,.94-1.34,5.08,5.08,0,0,0,.5-2.18A2.56,2.56,0,0,1,218,118a6.13,6.13,0,0,0-.68-1,5.51,5.51,0,0,0-1.43-1.23,6.55,6.55,0,0,1-2.47,2l-.26.08a22.56,22.56,0,0,0-2.53,1,1.57,1.57,0,0,0-.9,1.13Z"/><g class="cls-25"><path class="cls-26" d="M214.49,122.43a11.61,11.61,0,0,1-.58,1.54,4,4,0,0,0,2-.74,6.13,6.13,0,0,0,.94-1.34,5.08,5.08,0,0,0,.5-2.18A2.56,2.56,0,0,1,218,118a6.13,6.13,0,0,0-.68-1C217.1,118.47,216.5,121.3,214.49,122.43Z"/></g><g class="cls-25"><path class="cls-26" d="M209.66,124.62l.76.53s2.63-4.62,3.82-4.52c0,0-.94-.75-1.25-.56A19,19,0,0,0,209.66,124.62Z"/></g><g class="cls-25"><path class="cls-26" d="M219.4,128.27a1.44,1.44,0,0,0,1.09.24,1.09,1.09,0,0,0,.63-.34,3.27,3.27,0,0,1,2-1c1-.08,2.33-.19,2.71-.18a7.51,7.51,0,0,0,1-.6c.81-.53,1.93-1.3,2.73-1.83a5,5,0,0,0-.53-1.44c-1,.83-2.93,2.47-3.62,2.39-.91-.12-2.78-.4-3.11,0A33.78,33.78,0,0,0,219.4,128.27Z"/></g><polygon class="cls-7" points="216.24 123.79 219.86 138.51 198.33 126.08 194.71 111.36 216.24 123.79"/><polygon class="cls-6" points="216.82 123.45 216.24 123.79 194.71 111.36 195.29 111.02 216.82 123.45"/><polygon class="cls-5" points="219.86 138.51 220.44 138.17 216.82 123.45 216.24 123.79 219.86 138.51"/><path class="cls-12" d="M230.55,96.69c2.22-.74,4.29-3.57,5.32-5.17.43-.67.68-1.13.68-1.13l-.42-2-1.19-1a11.81,11.81,0,0,0-1.35.32c-1.65.46-4.26,1.5-4.62,3.44C228.44,94,230.55,96.69,230.55,96.69Z"/><g class="cls-25"><path class="cls-26" d="M233.59,87.7l2.28,3.82c.43-.67.68-1.13.68-1.13l-.42-2-1.19-1A11.81,11.81,0,0,0,233.59,87.7Z"/></g><path class="cls-12" d="M228.92,93.36c2.5.36,6.54-2.86,6.54-2.86l.27-2s.26.2,1.33-1.07c.33-1.77.87-5,1.71-8-1.48-3.83-6-4-8.76-3.17-3.41,1-3.88,4.34-4.11,6.13S227,93.08,228.92,93.36Z"/><path class="cls-14" d="M225.4,81.7c.08.51.14,1,.18,1.57s-.11,1.6.38,1.73c0-.15,0-.32,0-.47,0-.43-.22-3.24.78-2.84l.1.07a2,2,0,0,0,.68.25,1.29,1.29,0,0,0,.35,0c3.4.17,3.63-.47,4.65-.46a.78.78,0,0,1,.64.42,4.77,4.77,0,0,1,.73,2.61,7,7,0,0,0,0,1.95.46.46,0,0,0,.58,0,.85.85,0,0,0,.17-.2c.32-.49,0-2.85,1.17-2.52.85.32,1.34,1.2.53,3.55a.46.46,0,0,1-.07.14.48.48,0,0,0-.06.11A9.13,9.13,0,0,0,236,89.2h.58A7,7,0,0,1,238.06,86a8,8,0,0,0,1.76-3.88,5.23,5.23,0,0,0-.1-2.74,7.58,7.58,0,0,0-1.58-2.11,7.49,7.49,0,0,0-5.55-1.88s-4.29-.17-6.17,1.72a5.26,5.26,0,0,0-1,1.39,3.16,3.16,0,0,0-.31,1A6,6,0,0,0,225.4,81.7Z"/><g class="cls-25"><path class="cls-26" d="M228.92,93.36c2.5.36,6.54-2.86,6.54-2.86l.27-2s.26.2,1.33-1.07c.33-1.77.87-5,1.71-8L234,80.89s.61,8.58.44,9.32S228.92,93.36,228.92,93.36Z"/></g><path class="cls-42" d="M225.38,78.48c1.87-.59,5.68-1.33,8.58,1,0,0,.73.83.5,7.07a.64.64,0,0,0,.17-.19c.32-.49,0-2.85,1.17-2.52.85.32,1.34,1.2.53,3.55a.46.46,0,0,1-.07.14.48.48,0,0,0-.06.11A9.13,9.13,0,0,0,236,89.2h.58A7,7,0,0,1,238.06,86a8,8,0,0,0,1.76-3.88,5.23,5.23,0,0,0-.1-2.74,7.58,7.58,0,0,0-1.58-2.11,7.49,7.49,0,0,0-5.55-1.88s-4.29-.17-6.17,1.72A5.26,5.26,0,0,0,225.38,78.48Z"/><g class="cls-16"><ellipse class="cls-17" cx="51.05" cy="264.31" rx="15.09" ry="8.71"/></g><path class="cls-43" d="M100.31,115.66v93a2.27,2.27,0,0,1-1.49,2.41L93,214.44l-3.21-7.53L46.3,181.82C43.89,180.43,42,177.36,42,175V94.77L37,83.2l5.84-3.37c.8-.55,2-.49,3.43.31L96,108.81C98.35,110.19,100.31,113.26,100.31,115.66Z"/><path class="cls-19" d="M96,108.81l-6.39,3.62-29.34-1.81L42,95.35v-.58L37,83.2l5.84-3.37c.8-.55,2-.49,3.43.31Z"/><path class="cls-44" d="M35.57,178.58v-93c0-2.4,2-3.22,4.35-1.84l49.66,28.67c2.4,1.39,4.34,4.46,4.34,6.86v93c0,2.4-1.94,3.22-4.34,1.84L39.92,185.44C37.52,184.05,35.57,181,35.57,178.58Z"/><path class="cls-7" d="M89.47,114.46,40,85.91c-1.31-.75-2.37-.3-2.37,1v92.77A4.89,4.89,0,0,0,40,183.41L89.47,212c1.31.75,2.36.3,2.36-1V118.19A4.88,4.88,0,0,0,89.47,114.46Z"/><path class="cls-32" d="M47,160.35v8.54L38.5,164v-7c0-.84.68-1.13,1.53-.65Z"/><polygon class="cls-32" points="55.79 165.4 55.79 173.94 47.46 169.13 47.46 160.59 55.79 165.4"/><polygon class="cls-32" points="64.54 170.46 64.54 179 56.21 174.18 56.21 165.65 64.54 170.46"/><polygon class="cls-32" points="73.29 175.51 73.29 184.05 64.96 179.24 64.96 170.7 73.29 175.51"/><polygon class="cls-32" points="82.04 180.56 82.04 189.1 73.7 184.29 73.7 175.75 82.04 180.56"/><path class="cls-32" d="M91,187.26v7l-8.54-4.93V180.8l7,4A3.17,3.17,0,0,1,91,187.26Z"/><polygon class="cls-32" points="91 194.69 91 203.02 82.46 198.09 82.46 189.76 91 194.69"/><path class="cls-32" d="M91,203.44v7c0,.84-.68,1.13-1.53.64l-7-4.05v-8.56Z"/><polygon class="cls-32" points="82.04 198.27 82.04 206.83 73.7 202.02 73.7 193.46 82.04 198.27"/><polygon class="cls-32" points="73.29 193.22 73.29 201.78 64.96 196.97 64.96 188.41 73.29 193.22"/><polygon class="cls-32" points="64.54 188.16 64.54 196.73 56.21 191.92 56.21 183.35 64.54 188.16"/><polygon class="cls-32" points="55.79 183.11 55.79 191.68 47.46 186.87 47.46 178.3 55.79 183.11"/><path class="cls-32" d="M47,178.06v8.57l-7-4a3.17,3.17,0,0,1-1.53-2.42v-7Z"/><path class="cls-32" d="M40,147.92c-.85-.49-1.53-.2-1.53.65V153A3.17,3.17,0,0,0,40,155.41L79.4,178.14v-7.49Z"/><path class="cls-32" d="M89.47,176.47A3.16,3.16,0,0,1,91,178.88v4.43c0,.84-.69,1.13-1.53.65l-9.1-5.26v-7.49Z"/><polygon class="cls-32" points="47.04 169.31 47.04 177.64 38.5 172.71 38.5 164.38 47.04 169.31"/><polygon class="cls-32" points="55.79 174.36 55.79 182.69 47.46 177.88 47.46 169.55 55.79 174.36"/><polygon class="cls-32" points="64.54 179.41 64.54 187.75 56.21 182.94 56.21 174.6 64.54 179.41"/><polygon class="cls-32" points="73.29 184.46 73.29 192.8 64.96 187.99 64.96 179.65 73.29 184.46"/><polygon class="cls-32" points="82.04 189.52 82.04 197.85 73.7 193.04 73.7 184.71 82.04 189.52"/><path class="cls-4" d="M78,118l1.35-.8a2.8,2.8,0,0,1,2.84.31L121.06,140c.29.81.32.91.61,1.71l-6.43,3.71v18.24a2.06,2.06,0,0,1-.86,1.87l-1.18.69,0-.44a3.91,3.91,0,0,1-1.69-.56l-29.37-17a7.68,7.68,0,0,1-3.7-5.83V119.12a3.33,3.33,0,0,1,0-.46Z"/><path class="cls-32" d="M120.39,142.46,114,146.17v18.24c0,2-1.66,2.74-3.7,1.56L80.89,149a7.68,7.68,0,0,1-3.7-5.83V119.87c0-2.05,1.66-2.75,3.7-1.57l38.89,22.46Z"/><path class="cls-45" d="M120.39,142.46,114,146.17v18.24c0,2-1.66,2.74-3.7,1.56L80.89,149a7.68,7.68,0,0,1-3.7-5.83V119.87c0-2.05,1.66-2.75,3.7-1.57l38.89,22.46Z"/><path class="cls-11" d="M82,127l27.14,15.67c.45.26.81.1.81-.34v-.13a1.68,1.68,0,0,0-.81-1.28L82,125.28c-.44-.26-.8-.1-.8.34v.13A1.69,1.69,0,0,0,82,127Z"/><path class="cls-11" d="M82,135l27.14,15.67c.45.25.81.1.81-.35v-.13a1.67,1.67,0,0,0-.81-1.27L82,133.25c-.44-.26-.8-.11-.8.34v.13A1.69,1.69,0,0,0,82,135Z"/><path class="cls-11" d="M82,143l27.14,15.66c.45.26.81.11.81-.34v-.13a1.66,1.66,0,0,0-.81-1.27L82,141.22c-.44-.26-.8-.11-.8.34v.13A1.69,1.69,0,0,0,82,143Z"/><path class="cls-12" d="M83.68,186.15a2.57,2.57,0,0,1-.55.07,1,1,0,0,0-.82.53l-2.09,4.09-.43.83L78,188.31l-.8-1.49a4.33,4.33,0,0,0,.46-2.26,21.59,21.59,0,0,1,.15-3.69,1,1,0,0,1,.3-.6c1-1.05,5.1-5.1,5.33-5.15a1.09,1.09,0,0,1,.65.06.58.58,0,0,1,.19.19.67.67,0,0,1,0,.58,22.39,22.39,0,0,1-2,3.3l.07.05a19.33,19.33,0,0,1,1.92,1.62,2.69,2.69,0,0,1,.68,1C85.06,182.67,84.52,186,83.68,186.15Z"/><g class="cls-25"><path class="cls-26" d="M84.08,175.18l-5.22,6V188l-.87.3-.8-1.49a4.33,4.33,0,0,0,.46-2.26,21.59,21.59,0,0,1,.15-3.69,1,1,0,0,1,.3-.6c1-1.05,5.1-5.1,5.33-5.15A1.09,1.09,0,0,1,84.08,175.18Z"/></g><path class="cls-14" d="M51.67,270.82a4.16,4.16,0,0,0,2.62,1.12,1.92,1.92,0,0,0,.48-.07c1.22-.35,7.6-3.44,8.08-4.48s1.22-3.78,1-4.13a1.52,1.52,0,0,0-1.39-.56c-.48.12-4.39,1.69-6,1.61a2.08,2.08,0,0,0-1,.23,13.42,13.42,0,0,0-3.37,2.68S51.27,270.41,51.67,270.82Z"/><path class="cls-14" d="M38.91,263.72A.65.65,0,0,0,39,264a2.25,2.25,0,0,0,1.93,1.37,7.33,7.33,0,0,0,2-.14,5.81,5.81,0,0,0,2-1c.73-.53,1.82-2.36,3-3.14l3.22-2.23a8.91,8.91,0,0,0-.15-1.41c-.11-.23-3.2,0-3.85.17s-3,1.46-3.72,1.86l-.22.12L39.28,261Z"/><path class="cls-12" d="M35,228.93c.14.66,3.88,3.4,3.88,3.4l.34-.71,1.11-2.26-2.56-6.61-1.94.32-.54.55S34.9,228.27,35,228.93Z"/><g class="cls-25"><path class="cls-26" d="M35,228.93c.14.66,3.88,3.4,3.88,3.4l.34-.71,1.11-2.26-2.56-6.61-1.94.32-.54.55S34.9,228.27,35,228.93Z"/></g><path class="cls-10" d="M38.28,202.76a18,18,0,0,0-1.73,6.92A34.89,34.89,0,0,0,38,218.93c.36,1.33.71,2.46,1,3.15,0,.19.11.35.14.48a1.07,1.07,0,0,1,.11.33.66.66,0,0,1,0,.14,1.35,1.35,0,0,1-.82,1.15,3.53,3.53,0,0,1-.94.36,4.07,4.07,0,0,1-1.11.11,4.16,4.16,0,0,1-1.92-.47,1.54,1.54,0,0,1-.82-1.06s-2.3-12.83-1.89-15.71,5-14.57,5.94-15.42a6.23,6.23,0,0,1,1-.76,4.17,4.17,0,0,1,.83-.38s0,9.75,0,9.75A15.16,15.16,0,0,0,38.28,202.76Z"/><path class="cls-19" d="M59,245.61l-.81,21.86a1.64,1.64,0,0,1-1,1.35,3.79,3.79,0,0,1-1.25.45,5.36,5.36,0,0,1-2.76-.15,3.42,3.42,0,0,1-.7-.32,1.67,1.67,0,0,1-1-1.36l.1-21.61-4.77-12.65c-.6,3.24-1.62,9-1.75,10.65-.17,2.35-.07,17-.07,17a1.77,1.77,0,0,1-1,1.37,4.93,4.93,0,0,1-1.06.39,5.53,5.53,0,0,1-2.71-.05,3.6,3.6,0,0,1-.95-.36,1.73,1.73,0,0,1-1-1.38s-.39-15-.28-15.81a58.33,58.33,0,0,0,.41-6.76c.08-3.71-.62-13.91-.62-13.91a12.54,12.54,0,0,1,.66-4.64c.3-1,.59-1.77.59-1.77l13.63,2.06,3.46.52C59,229.74,59,245.61,59,245.61Z"/><path class="cls-46" d="M40.47,262.54a4,4,0,0,1-.95-.36,1.75,1.75,0,0,1-1-1.38s-.45-15-.34-15.81a61.63,61.63,0,0,0,.38-6.76c.06-3.71-.68-13.91-.68-13.91a12.24,12.24,0,0,1,.63-4.63l1.92,2.39a13.15,13.15,0,0,0-.23,6.67C41,232.22,40.55,258.19,40.47,262.54Z"/><path class="cls-22" d="M57.88,204.21c-.15.58-.32,1.15-.49,1.7a46.39,46.39,0,0,0-1.58,4.78c-.5,2.94,1.37,9.63,1.29,10.8,0,.78-1,1.79-3.73,2.34a26.57,26.57,0,0,1-5.35.38,18.7,18.7,0,0,1-9.09-2.13,6.84,6.84,0,0,1-1.25-.82s.13-.93.3-2.33c.25-2.14.61-5.41.74-8.24a44.52,44.52,0,0,0-.44-7.93c-.17-1.52-.38-3-.52-4.67a12.11,12.11,0,0,1,1.48-6.83c.14-.23.24-.38.25-.41a4.33,4.33,0,0,1,.63,0,35.43,35.43,0,0,1,5.19.58,27.92,27.92,0,0,1,4.23,1.09,21,21,0,0,1,7.36,4A7,7,0,0,1,58,198.56,10.54,10.54,0,0,1,57.88,204.21Z"/><path class="cls-10" d="M81.51,189.92a1.87,1.87,0,0,1-.19.9c0,.06-.08.13-.13.19-1,1.56-8.57,13-9.52,13.61s-11.1,1.21-14.28,1.29h-.55c-2.12,0-3.68-.3-4.18-3.21a8.38,8.38,0,0,1-.14-1.11,4.68,4.68,0,0,1,2.25-4.27,7,7,0,0,1,1.06-.61,2.18,2.18,0,0,1,1.84,0,15.63,15.63,0,0,0,6.78,1.45,10.67,10.67,0,0,0,4.07-.87s7.85-11.22,7.85-11.22c.38-.8,1.36-1,2.49-.32a5.62,5.62,0,0,1,1.56,1.41A4.85,4.85,0,0,1,81.51,189.92Z"/><g class="cls-27"><path class="cls-28" d="M47.66,191.09a2,2,0,0,0,.49-.09l.28-.12a3.7,3.7,0,0,0,2-2.47l.06-.25a3.77,3.77,0,0,0,.08-1.16,5,5,0,0,1,0-.68c.06-1.33.67-1.53,1.14-1.61s.55,1.34.55,1.34l.64-.2.09-2.07a.94.94,0,0,1,.21-.58c.51-.58,2.27-.94,2.26-3.16,0-1-1.07-4.52-6.42-4.58,1.69.88,4.66,2.74,3.21,4.49a11.73,11.73,0,0,0-2.5,7.2A4.62,4.62,0,0,1,47.66,191.09Z"/></g><path class="cls-47" d="M40.12,190.88a4.17,4.17,0,0,0-.61,0,4.64,4.64,0,0,0-.84.39,5.87,5.87,0,0,0-1,.76c-.94.85-5.53,12.55-5.94,15.42s1.89,15.71,1.89,15.71a1.54,1.54,0,0,0,.82,1.06,4.16,4.16,0,0,0,1.92.47C35.6,221.5,33,210,33.08,207.75c.09-2,3.51-10.25,5.21-14.27a11.7,11.7,0,0,0-.53,4.61c.14,1.62.35,3.15.52,4.67a44.52,44.52,0,0,1,.44,7.93c-.13,2.83-.49,6.1-.74,8.24-.17,1.4-.3,2.33-.3,2.33a6.84,6.84,0,0,0,1.25.82,64.81,64.81,0,0,0-.26-21.8,13.82,13.82,0,0,1,.68-7.22c.36-1.05,7.7.71,7.7.71l-1.74-2.33A37.17,37.17,0,0,0,40.12,190.88Z"/><path class="cls-48" d="M78.86,185.74s-5.69,11.32-10.34,11.54c0,0,7.85-11.22,7.85-11.22C76.75,185.26,77.73,185.08,78.86,185.74Z"/><path class="cls-49" d="M71.67,204.62c-.94.61-11.1,1.21-14.28,1.29h-.55c-2.12,0-3.68-.3-4.18-3.21C53.16,202.83,64.72,205.55,71.67,204.62Z"/><path class="cls-50" d="M53.35,245.69l-.11,23.43a3.42,3.42,0,0,1-.7-.32,1.67,1.67,0,0,1-1-1.36l.1-21.61-4.77-12.65Z"/><path class="cls-12" d="M54.2,182.17s0,.14,0,.36c-.08,1.16-.33,4.84-.73,5.67a3.65,3.65,0,0,1-2.33,2,.43.43,0,0,0-.3.43c.08,1.56.13,2.35.16,2.48a6.7,6.7,0,0,1-1.63.66,3.25,3.25,0,0,1-.77.09h-.06a8.39,8.39,0,0,1-4.07-.8,1.19,1.19,0,0,1-.71-1c0,.14,0,.27,0-.33s0-1,0-1.44c0-.09,1.8-1.62,3.91-3.33,1.74-1.38,3.68-2.9,5-3.83l.24-.17a11.6,11.6,0,0,1,1.08-.69C54.12,182.1,54.22,182.09,54.2,182.17Z"/><path class="cls-14" d="M55.5,180a2.83,2.83,0,0,1-1.31,2.49,4.57,4.57,0,0,0-.95.66.93.93,0,0,0-.22.58l-.09,2.08-.63.21s-.08-1.45-.56-1.36-1.07.29-1.15,1.61c0,.27,0,.49,0,.7a3.74,3.74,0,0,1-.08,1.15l-.06.25a3.67,3.67,0,0,1-2,2.47l-.28.13a2.73,2.73,0,0,1-.49.08,8.18,8.18,0,0,1-4-.87,20.11,20.11,0,0,1-1.34-3c-.15-.79-.91-2.51-1.1-3.26-.46-1.94-.36-7.44,5.44-8.31a14.64,14.64,0,0,1,2.36-.18c4.92,0,6.23,3,6.4,4.28A.86.86,0,0,1,55.5,180Z"/><g class="cls-25"><path class="cls-26" d="M55.46,179.74c-1.1.25-3.21-.4-4.36-.29-1.72.18-3.14,4.84-3.44,6.81a4.34,4.34,0,0,0,0,.63,11.9,11.9,0,0,0,.82,4l.1,3a8.39,8.39,0,0,1-4.07-.8,1.19,1.19,0,0,1-.71-1c0,.14,0,.27,0-.33s0-1,0-1.44a20.11,20.11,0,0,1-1.34-3c-.15-.79-.91-2.51-1.1-3.26-.46-1.94-.36-7.44,5.44-8.31a14.64,14.64,0,0,1,2.36-.18C54,175.51,55.29,178.48,55.46,179.74Z"/></g><path class="cls-4" d="M268.13,59.43l1.29-.74,47.7,27.55a7.64,7.64,0,0,1,3.7,5.83v23.31a2.08,2.08,0,0,1-.85,1.87l-1.29.74-.52-.6a4.55,4.55,0,0,1-1-.45l-38.19-22a7.68,7.68,0,0,1-3.7-5.83V70.82l-5.51-9.54Z"/><path class="cls-32" d="M267.51,60.43,274,71.57V89.8a7.65,7.65,0,0,0,3.7,5.84l38.19,22c2,1.18,3.7.48,3.7-1.57V92.81a7.68,7.68,0,0,0-3.7-5.83L268.13,59.43Z"/><path class="cls-45" d="M267.51,60.43,274,71.57V89.8a7.65,7.65,0,0,0,3.7,5.84l38.19,22c2,1.18,3.7.48,3.7-1.57V92.81a7.68,7.68,0,0,0-3.7-5.83L268.13,59.43Z"/><path class="cls-19" d="M283.83,76.69,311,92.36c.45.26.81.11.81-.34v-.13a1.68,1.68,0,0,0-.81-1.28L283.83,74.94c-.45-.25-.81-.1-.81.35v.13A1.67,1.67,0,0,0,283.83,76.69Z"/><path class="cls-19" d="M283.83,84.66,311,100.33c.45.26.81.1.81-.34v-.13a1.68,1.68,0,0,0-.81-1.28L283.83,82.91c-.45-.26-.81-.1-.81.34v.14A1.67,1.67,0,0,0,283.83,84.66Z"/><path class="cls-19" d="M283.83,92.63,311,108.3c.45.26.81.1.81-.34v-.13a1.68,1.68,0,0,0-.81-1.28L283.83,90.88c-.45-.26-.81-.1-.81.34v.13A1.68,1.68,0,0,0,283.83,92.63Z"/><polygon class="cls-1" points="27.83 133.55 54.3 148.83 54.3 108.19 27.83 92.9 27.83 133.55"/><polygon class="cls-4" points="56.5 106.92 30.03 91.64 27.83 92.9 54.3 108.19 56.5 106.92"/><polygon class="cls-4" points="56.5 106.92 56.5 147.56 54.3 148.83 54.3 108.19 56.5 106.92"/><g class="cls-3"><polygon class="cls-22" points="33.73 117.39 34.86 116.74 37.7 118.38 36.57 119.03 33.73 117.39"/><polygon class="cls-10" points="47.27 125.21 48.4 124.55 41.6 130.01 40.47 130.66 47.27 125.21"/><polygon class="cls-22" points="44.43 123.57 45.56 122.92 48.4 124.55 47.27 125.21 44.43 123.57"/><polygon class="cls-22" points="36.61 106.5 37.73 105.85 45.59 110.39 44.47 111.04 36.61 106.5"/><polygon class="cls-10" points="44.47 111.04 45.59 110.39 45.56 122.92 44.43 123.57 44.47 111.04"/><polygon class="cls-51" points="44.43 123.57 47.27 125.21 40.47 130.66 33.73 117.39 36.57 119.03 36.61 106.5 44.47 111.04 44.43 123.57"/></g><g class="cls-3"><g class="cls-3"><path class="cls-1" d="M220.66,186.83l1.12.65a1.85,1.85,0,0,0-1.87.18l-1.13-.65A1.87,1.87,0,0,1,220.66,186.83Z"/><g class="cls-52"><g class="cls-3"><path class="cls-1" d="M219.91,187.66l-1.13-.65.37-.18,1.13.65-.37.18Z"/><path class="cls-1" d="M220.28,187.48l-1.13-.65a2.33,2.33,0,0,1,.31-.11l1.13.65-.31.11Z"/><path class="cls-1" d="M220.59,187.37l-1.13-.65.23-.05,1.13.65-.23.05Z"/><path class="cls-1" d="M220.82,187.32l-1.13-.65.2,0,1.13.65-.2,0Z"/><path class="cls-1" d="M221,187.3l-1.13-.65h.18l1.12.66Z"/><path class="cls-1" d="M221.19,187.31l-1.12-.66.15,0,1.13.65Z"/><path class="cls-1" d="M221.35,187.32l-1.13-.65.15,0,1.13.66-.15,0Z"/><path class="cls-1" d="M221.5,187.36l-1.13-.66.14.05,1.13.66-.14,0Z"/><path class="cls-1" d="M221.64,187.41l-1.13-.66.13.07,1.13.65-.13-.06Z"/><path class="cls-1" d="M221.77,187.47l-1.13-.65,1.14.66Z"/></g></g></g><g class="cls-3"><path class="cls-2" d="M170,235.23l-1.12-.66a1.84,1.84,0,0,1-.77-1.68l1.13.65A1.85,1.85,0,0,0,170,235.23Z"/><g class="cls-53"><g class="cls-3"><path class="cls-2" d="M170,235.23l-1.12-.66a1.84,1.84,0,0,1-.77-1.68l1.13.65a1.85,1.85,0,0,0,.76,1.69Z"/></g></g></g><polygon class="cls-2" points="169.24 233.54 168.11 232.89 168.07 219.32 169.2 219.97 169.24 233.54"/><polygon class="cls-1" points="171.82 215.43 170.7 214.77 218.78 187.01 219.91 187.66 171.82 215.43"/><g class="cls-3"><path class="cls-1" d="M169.2,220l-1.13-.65a5.8,5.8,0,0,1,2.63-4.55l1.12.66A5.8,5.8,0,0,0,169.2,220Z"/><g class="cls-54"><g class="cls-3"><path class="cls-1" d="M169.2,220l-1.13-.65a4.73,4.73,0,0,1,0-.52l1.12.66a4.36,4.36,0,0,0,0,.51Z"/><path class="cls-1" d="M169.23,219.46l-1.12-.66a2.25,2.25,0,0,1,.06-.36l1.13.65c0,.12-.05.25-.07.37Z"/><path class="cls-1" d="M169.3,219.09l-1.13-.65c0-.1.05-.2.07-.31l1.13.66c0,.1-.05.2-.07.3Z"/><path class="cls-1" d="M169.37,218.79l-1.13-.66.09-.26,1.12.65c0,.09,0,.18-.08.27Z"/><path class="cls-1" d="M169.45,218.52l-1.12-.65a1.06,1.06,0,0,1,.09-.25l1.12.65-.09.25Z"/><path class="cls-1" d="M169.54,218.27l-1.12-.65.09-.24,1.13.66a1.6,1.6,0,0,0-.1.23Z"/><path class="cls-1" d="M169.64,218l-1.13-.66.11-.23,1.12.66c0,.07-.07.15-.1.23Z"/><path class="cls-1" d="M169.74,217.81l-1.12-.66.11-.22,1.13.65-.12.23Z"/><path class="cls-1" d="M169.86,217.58l-1.13-.65.12-.22,1.13.65-.12.22Z"/><path class="cls-1" d="M170,217.36l-1.13-.65.14-.23,1.13.66-.14.22Z"/><path class="cls-1" d="M170.12,217.14l-1.13-.66.15-.22,1.13.65-.15.23Z"/><path class="cls-1" d="M170.27,216.91l-1.13-.65.18-.24,1.12.65-.17.24Z"/><path class="cls-1" d="M170.44,216.67l-1.12-.65.21-.26,1.13.65-.22.26Z"/><path class="cls-1" d="M170.66,216.41l-1.13-.65c.09-.11.19-.21.29-.31l1.13.66-.29.3Z"/><path class="cls-1" d="M171,216.11l-1.13-.66a4.33,4.33,0,0,1,.88-.68l1.12.66a4.19,4.19,0,0,0-.87.68Z"/></g></g></g><path class="cls-4" d="M219.91,187.66c1.45-.84,2.64-.16,2.64,1.51l0,13.57a5.77,5.77,0,0,1-2.62,4.54L171.88,235c-1.45.84-2.64.17-2.64-1.5l0-13.57a5.8,5.8,0,0,1,2.62-4.54Z"/></g><path class="cls-19" d="M191.28,217.09c-1.62.94-4.48.72-4.6.71l-.36,0,.36-.45c.12-.15,3-3.66,4.6-4.6s4.47-.71,4.59-.7l.36,0-.36.45C195.75,212.64,192.89,216.16,191.28,217.09Zm-3.91.07a8.47,8.47,0,0,0,3.91-.63,23,23,0,0,0,3.9-3.87,8.43,8.43,0,0,0-3.9.63A23.09,23.09,0,0,0,187.37,217.16Z"/><path class="cls-19" d="M193.26,213.76a4.11,4.11,0,0,1-2,3.13c-1.1.63-2,.26-2-.84a4.1,4.1,0,0,1,2-3.12C192.37,212.29,193.26,212.67,193.26,213.76Z"/><path class="cls-38" d="M216.47,196.16a5.22,5.22,0,0,0-1.84,1.92,1.86,1.86,0,0,0-1.84.2,5.05,5.05,0,0,0-2.44,3.84c0,1.35,4.28,2.65,4.28,2.65s4.27-6.24,4.27-7.58S217.81,195.38,216.47,196.16Z"/><path class="cls-44" d="M178.63,219.08,176,220.62v2a4.9,4.9,0,0,1,1.1-.9c1.16-.67,1.95-.31,1.95,1a4.58,4.58,0,0,1-2.38,3.69,2.11,2.11,0,0,1-2,.3l.55-.86a1.56,1.56,0,0,0,1.47-.2,2.74,2.74,0,0,0,1.4-2.38c0-1.06-.54-1.11-1.25-.7a3.79,3.79,0,0,0-1,.8l-.74.42v-3.45l3.71-2.15Z"/><path class="cls-44" d="M184.61,218.32c0,2.27-.76,4-2.29,4.87s-2.3.06-2.3-2.22.76-4,2.3-4.86S184.61,216.05,184.61,218.32ZM181,220.4c0,2,.46,2.54,1.32,2s1.31-1.53,1.31-3.55-.46-2.53-1.31-2S181,218.39,181,220.4Z"/><path class="cls-44" d="M202,205.6l-2.68,1.54v2a4.64,4.64,0,0,1,1.1-.9c1.16-.67,1.95-.31,1.95,1.05A4.59,4.59,0,0,1,200,213a2.14,2.14,0,0,1-2,.3l.55-.86a1.56,1.56,0,0,0,1.47-.2,2.74,2.74,0,0,0,1.4-2.38c0-1.06-.54-1.11-1.25-.71a4.48,4.48,0,0,0-1,.8l-.74.43v-3.46l3.71-2.14Z"/><path class="cls-44" d="M208,204.84c0,2.27-.75,4-2.29,4.87s-2.3,0-2.3-2.22.76-4,2.3-4.86S208,202.57,208,204.84Zm-3.6,2.08c0,2,.45,2.54,1.31,2s1.31-1.54,1.31-3.56-.46-2.52-1.31-2S204.36,204.91,204.36,206.92Z"/><path class="cls-1" d="M165.2,260.76l1.54.89a2.58,2.58,0,0,0-2.56.25l-1.53-.89A2.54,2.54,0,0,1,165.2,260.76Z"/><g class="cls-55"><g class="cls-3"><path class="cls-1" d="M164.18,261.9l-1.53-.89a4.66,4.66,0,0,1,.5-.25l1.54.89c-.17.07-.34.16-.51.25Z"/><path class="cls-1" d="M164.69,261.65l-1.54-.89a2.58,2.58,0,0,1,.42-.14l1.54.89a3.45,3.45,0,0,0-.42.14Z"/><path class="cls-1" d="M165.11,261.51l-1.54-.89.32-.07,1.53.89-.31.07Z"/><path class="cls-1" d="M165.42,261.44l-1.53-.89.27,0,1.53.89-.27,0Z"/><path class="cls-1" d="M165.69,261.41l-1.53-.89h.23l1.54.9Z"/><path class="cls-1" d="M165.93,261.42l-1.54-.9.22,0,1.54.89-.22,0Z"/><path class="cls-1" d="M166.15,261.44l-1.54-.89.2.05,1.54.89-.2-.05Z"/><path class="cls-1" d="M166.35,261.49l-1.54-.89.19.06,1.54.9-.19-.07Z"/><path class="cls-1" d="M166.54,261.56l-1.54-.9.18.09,1.54.89-.18-.08Z"/><path class="cls-1" d="M166.72,261.64l-1.54-.89,1.56.9Z"/></g></g><path class="cls-1" d="M120.94,326.25l-1.54-.89a2.54,2.54,0,0,1-1.05-2.3l1.54.89A2.49,2.49,0,0,0,120.94,326.25Z"/><g class="cls-56"><g class="cls-3"><path class="cls-1" d="M120.94,326.25l-1.54-.89a2.54,2.54,0,0,1-1.05-2.3l1.54.89a2.49,2.49,0,0,0,1,2.3Z"/></g></g><polygon class="cls-1" points="119.89 323.95 118.36 323.06 118.26 290.77 119.8 291.66 119.89 323.95"/><polygon class="cls-1" points="123.37 285.47 121.84 284.57 162.65 261.01 164.19 261.9 123.37 285.47"/><path class="cls-1" d="M119.8,291.66l-1.54-.89a7.92,7.92,0,0,1,3.58-6.2l1.53.9A7.85,7.85,0,0,0,119.8,291.66Z"/><g class="cls-57"><g class="cls-3"><path class="cls-1" d="M119.8,291.66l-1.54-.89a5.78,5.78,0,0,1,0-.71l1.53.9a5.48,5.48,0,0,0,0,.7Z"/><path class="cls-1" d="M119.84,291l-1.53-.9c0-.16,0-.33.08-.49l1.54.89c0,.17-.06.33-.09.5Z"/><path class="cls-1" d="M119.93,290.46l-1.54-.89c0-.14.07-.28.11-.41l1.53.89c0,.14-.07.27-.1.41Z"/><path class="cls-1" d="M120,290.05l-1.53-.89c0-.13.07-.25.11-.37l1.53.89c0,.13-.08.25-.11.37Z"/><path class="cls-1" d="M120.14,289.68l-1.53-.89a2.3,2.3,0,0,1,.12-.34l1.53.89-.12.34Z"/><path class="cls-1" d="M120.26,289.34l-1.53-.89c0-.11.08-.21.13-.32l1.54.89c-.05.11-.09.22-.14.32Z"/><path class="cls-1" d="M120.4,289l-1.54-.89c0-.1.09-.21.14-.31l1.54.89c-.05.1-.1.21-.14.31Z"/><path class="cls-1" d="M120.54,288.71l-1.54-.89c0-.1.1-.21.16-.31l1.53.9-.15.3Z"/><path class="cls-1" d="M120.69,288.41l-1.53-.9c0-.1.11-.2.17-.3l1.53.89-.17.31Z"/><path class="cls-1" d="M120.86,288.1l-1.53-.89.18-.3,1.54.89c-.07.1-.13.2-.19.3Z"/><path class="cls-1" d="M121.05,287.8l-1.54-.89.21-.31,1.53.89a3.28,3.28,0,0,0-.2.31Z"/><path class="cls-1" d="M121.25,287.49l-1.53-.89.24-.33,1.53.9-.24.32Z"/><path class="cls-1" d="M121.49,287.17l-1.53-.9c.09-.12.19-.24.29-.35l1.53.89-.29.36Z"/><path class="cls-1" d="M121.78,286.81l-1.53-.89q.19-.23.39-.42l1.54.89-.4.42Z"/><path class="cls-1" d="M122.18,286.39l-1.54-.89a6.46,6.46,0,0,1,1.2-.93l1.53.9a5.67,5.67,0,0,0-1.19.92Z"/></g></g><path class="cls-4" d="M164.18,261.9c2-1.14,3.6-.22,3.6,2.05l.09,32.3a7.87,7.87,0,0,1-3.57,6.19L123.49,326c-2,1.14-3.59.23-3.6-2.05l-.09-32.29a7.85,7.85,0,0,1,3.57-6.19Z"/><path class="cls-9" d="M121.88,325.69c-1.07,0-1.19-1.22-1.19-1.74l-.09-32.29a7.11,7.11,0,0,1,3.17-5.5l40.81-23.56a2.47,2.47,0,0,1,1.21-.39c1.07,0,1.19,1.22,1.19,1.75l.1,32.29a7.14,7.14,0,0,1-3.18,5.5l-40.81,23.56A2.52,2.52,0,0,1,121.88,325.69Z"/><path class="cls-7" d="M127.92,313.29a.5.5,0,0,1-.37.1c-.27-.06-.32-.44-.11-.86l6.75-13.47a1.3,1.3,0,0,1,.46-.54.41.41,0,0,1,.48-.07l4,2.47,7.45-14.69a1.53,1.53,0,0,1,.42-.51.55.55,0,0,1,.46-.12l5.3,1.73,5.68-9.4c.24-.4.62-.63.86-.52s.22.54,0,.94l-6.08,10.07c-.23.38-.59.61-.83.53l-5.23-1.71L139.65,302a1.44,1.44,0,0,1-.46.54.49.49,0,0,1-.48.07l-4-2.48-6.3,12.57A1.38,1.38,0,0,1,127.92,313.29Z"/><path class="cls-11" d="M136.15,298.24a3.31,3.31,0,0,1-1.48,2.51c-.82.51-1.48.21-1.48-.67a3.31,3.31,0,0,1,1.48-2.51C135.49,297.06,136.15,297.36,136.15,298.24Z"/><path class="cls-10" d="M140.67,300.8a3.34,3.34,0,0,1-1.49,2.51c-.81.51-1.48.21-1.48-.67a3.38,3.38,0,0,1,1.48-2.52C140,299.61,140.67,299.92,140.67,300.8Z"/><path class="cls-11" d="M148.56,285.59a3.35,3.35,0,0,1-1.48,2.52c-.82.5-1.48.2-1.48-.68a3.33,3.33,0,0,1,1.48-2.51C147.9,284.41,148.56,284.71,148.56,285.59Z"/><path class="cls-10" d="M154.38,287a3.34,3.34,0,0,1-1.49,2.51c-.82.51-1.48.21-1.48-.67a3.35,3.35,0,0,1,1.48-2.52C153.71,285.8,154.38,286.11,154.38,287Z"/><path class="cls-11" d="M160.36,277.22a3.31,3.31,0,0,1-1.48,2.51c-.82.51-1.49.21-1.49-.67a3.33,3.33,0,0,1,1.49-2.51C159.7,276,160.36,276.34,160.36,277.22Z"/></g></g></g></svg>